<svg xmlns="http://www.w3.org/2000/svg" xmlns:xlink="http://www.w3.org/1999/xlink" viewBox="0 0 512 512"><defs><linearGradient id="A" x1="87.25%" y1="15.5%" x2="9.4%" y2="93.1%"><stop offset=".05" stop-color="#fff44f"/><stop offset=".37" stop-color="#ff980e"/><stop offset=".53" stop-color="#ff3647"/><stop offset=".7" stop-color="#e31587"/></linearGradient><radialGradient id="B" cx="87.4%" cy="-12.9%" r="128%" gradientTransform="translate(0.874,0),scale(0.8,1),translate(-0.87,0.129)"><stop offset=".13" stop-color="#ffbd4f"/><stop offset=".28" stop-color="#ff980e"/><stop offset=".47" stop-color="#ff3750"/><stop offset=".78" stop-color="#eb0878"/><stop offset=".86" stop-color="#e50080"/></radialGradient><radialGradient id="C" cx="49%" cy="40%" r="128%" gradientTransform="translate(0.49,0.4),scale(0.82,1),translate(-0.49,-0.4)"><stop offset=".3" stop-color="#960e18"/><stop offset=".35" stop-color="#b11927" stop-opacity=".74"/><stop offset=".43" stop-color="#db293d" stop-opacity=".34"/><stop offset=".5" stop-color="#f5334b" stop-opacity=".1"/><stop offset=".53" stop-color="#ff3750" stop-opacity="0"/></radialGradient><radialGradient id="D" cx="48%" cy="-12%" r="140%"><stop offset=".13" stop-color="#fff44f"/><stop offset=".53" stop-color="#ff980e"/></radialGradient><radialGradient id="E" cx="22.76%" cy="110.11%" r="100%"><stop offset=".35" stop-color="#3a8ee6"/><stop offset=".67" stop-color="#9059ff"/><stop offset="1" stop-color="#c139e6"/></radialGradient><radialGradient id="F" cx="52%" cy="33%" r="59%" gradientTransform="scale(.9,1)"><stop offset=".21" stop-color="#9059ff" stop-opacity="0"/><stop offset=".97" stop-color="#6e008b" stop-opacity=".6"/></radialGradient><radialGradient id="G" cx="210%" cy="-100%" r="290%"><stop offset=".1" stop-color="#ffe226"/><stop offset=".79" stop-color="#ff7139"/></radialGradient><radialGradient id="H" cx="84%" cy="-41%" r="180%"><stop offset=".11" stop-color="#fff44f"/><stop offset=".46" stop-color="#ff980e"/><stop offset=".72" stop-color="#ff3647"/><stop offset=".9" stop-color="#e31587"/></radialGradient><radialGradient id="I" cx="16.1%" cy="-18.6%" r="348.8%" gradientTransform="translate(0.16,-0.19),scale(1,0.47),rotate(84),translate(-0.16,0.19)"><stop offset="0" stop-color="#fff44f"/><stop offset=".3" stop-color="#ff980e"/><stop offset=".57" stop-color="#ff3647"/><stop offset=".74" stop-color="#e31587"/></radialGradient><radialGradient id="J" cx="18.9%" cy="-42.5%" r="238.4%"><stop offset=".14" stop-color="#fff44f"/><stop offset=".48" stop-color="#ff980e"/><stop offset=".66" stop-color="#ff3647"/><stop offset=".9" stop-color="#e31587"/></radialGradient><radialGradient id="K" cx="159.3%" cy="-44.72%" r="313.1%"><stop offset=".09" stop-color="#fff44f"/><stop offset=".63" stop-color="#ff980e"/></radialGradient><linearGradient id="L" x1="80%" y1="14%" x2="18%" y2="84%"><stop offset=".17" stop-color="#fff44f" stop-opacity=".8"/><stop offset=".6" stop-color="#fff44f" stop-opacity="0"/></linearGradient><path id="M" d="M478.71 166.353c-10.445-25.124-31.6-52.248-48.212-60.82 13.52 26.505 21.345 53.093 24.335 72.936 0-.058.01.048.036.226l.04.26c22.675 61.47 10.322 123.978-7.48 162.175-27.54 59.1-94.215 119.67-198.576 116.716C136.1 454.65 36.766 370.988 18.223 261.4c-3.38-17.28 0-26.054 1.7-40.084-2.07 10.816-2.86 13.94-3.9 33.157 0 .4-.025.816-.025 1.227C16 388.418 123.6 496 256.324 496c118.865 0 217.56-86.288 236.882-199.63l1.092-9.27c4.777-41.2-.53-84.525-15.587-120.746z"/><path id="N" d="M256.772 209.514c-.393 5.978-21.514 26.593-28.9 26.593-68.34 0-79.432 41.335-79.432 41.335 3.027 34.8 27.26 63.475 56.61 78.643 1.34.692 2.694 1.317 4.05 1.935a132.768 132.768 0 0 0 7.059 2.886 106.743 106.743 0 0 0 31.271 6.031c119.78 5.618 142.986-143.194 56.545-186.408 22.137-3.85 45.115 5.053 57.947 14.067-21.012-36.714-60.25-61.484-105.3-61.484-2.85 0-5.64.235-8.442.43a120.249 120.249 0 0 0-66.142 25.488c3.664 3.1 7.8 7.244 16.514 15.828 16.302 16.067 58.13 32.705 58.22 34.657z"/></defs><path d="M478.71 166.353c-10.445-25.124-31.6-52.248-48.212-60.82 13.52 26.505 21.345 53.093 24.335 72.936 0 .04.015.136.047.4C427.706 111.135 381.627 83.823 344 24.355l-5.66-9.2a73.716 73.716 0 0 1-2.646-4.972A43.7 43.7 0 0 1 332.1.677a.626.626 0 0 0-.546-.644.818.818 0 0 0-.451 0c-.034.012-.084.05-.12.065-.053.02-.12.07-.176.1.027-.036.083-.117.1-.136-60.37 35.356-80.85 100.76-82.732 133.484a120.249 120.249 0 0 0-66.142 25.488 71.355 71.355 0 0 0-6.225-4.7 111.338 111.338 0 0 1-.674-58.732c-24.688 11.24-43.9 29-57.85 44.7h-.11c-9.527-12.067-8.855-51.873-8.312-60.184-.114-.515-7.107 3.63-8.023 4.255a175.073 175.073 0 0 0-23.486 20.12 210.478 210.478 0 0 0-22.442 26.913c0 .012-.007.026-.01.038 0-.013.007-.026.01-.038a202.838 202.838 0 0 0-32.247 72.805c-.115.52-.212 1.06-.324 1.586-.452 2.116-2.08 12.7-2.365 15-.022.177-.032.347-.053.524a229.066 229.066 0 0 0-3.9 33.157c0 .4-.025.816-.025 1.227C16 388.418 123.6 496 256.324 496c118.865 0 217.56-86.288 236.882-199.63l1.092-9.27c4.777-41.2-.53-84.525-15.587-120.746zM201.716 354.447c1.124.537 2.18 1.124 3.334 1.64.048.033.114.07.163.1a126.191 126.191 0 0 1-3.497-1.739zm55.053-144.93zm198.13-30.6l-.032-.233.04.26z" fill="url(#A)"/><use xlink:href="#M" fill="url(#B)"/><use xlink:href="#M" fill="url(#C)"/><path d="M361.922 194.6l1.493 1.1a130.706 130.706 0 0 0-22.31-29.112C266.4 91.892 321.516 4.626 330.81.194c.027-.036.083-.117.1-.136-60.37 35.356-80.85 100.76-82.732 133.484 2.8-.194 5.592-.43 8.442-.43 45.05 0 84.29 24.77 105.3 61.487z" fill="url(#D)"/><use xlink:href="#N" fill="url(#E)"/><use xlink:href="#N" fill="url(#F)"/><path d="M170.83 151.036a244.042 244.042 0 0 1 4.981 3.3 111.338 111.338 0 0 1-.674-58.732c-24.688 11.24-43.9 29-57.85 44.7 1.155-.033 36.014-.66 53.543 10.732z" fill="url(#G)"/><path d="M18.223 261.4C36.766 370.988 136.1 454.65 248.855 457.844c104.36 2.954 171.037-57.62 198.576-116.716 17.8-38.2 30.154-100.7 7.48-162.175l-.008-.026-.032-.233c-.025-.178-.04-.284-.036-.226 0 .04.015.136.047.4 8.524 55.66-19.8 109.584-64.05 146.044l-.133.313c-86.245 70.223-168.774 42.368-185.484 30.966a144.108 144.108 0 0 1-3.5-1.743c-50.282-24.03-71.054-69.838-66.6-109.124-42.457 0-56.934-35.81-56.934-35.81s38.12-27.18 88.358-3.54c46.53 21.893 90.228 3.543 90.233 3.54-.09-1.952-41.917-18.6-58.223-34.656-8.713-8.584-12.85-12.723-16.514-15.828a71.355 71.355 0 0 0-6.225-4.7 282.929 282.929 0 0 0-4.981-3.3c-17.528-11.392-52.388-10.765-53.543-10.735h-.11c-9.527-12.067-8.855-51.873-8.312-60.184-.114-.515-7.107 3.63-8.023 4.255a175.073 175.073 0 0 0-23.486 20.12 210.478 210.478 0 0 0-22.442 26.919c0 .012-.007.026-.01.038 0-.013.007-.026.01-.038a202.838 202.838 0 0 0-32.247 72.805c-.115.52-8.65 37.842-4.44 57.2z" fill="url(#H)"/><path d="M341.105 166.587a130.706 130.706 0 0 1 22.31 29.112l3.608 2.952c54.482 50.2 25.936 121.2 23.807 126.26 44.26-36.46 72.575-90.383 64.05-146.044C427.706 111.135 381.627 83.823 344 24.355l-5.66-9.2a73.716 73.716 0 0 1-2.646-4.972A43.7 43.7 0 0 1 332.1.677a.626.626 0 0 0-.546-.644.818.818 0 0 0-.451 0c-.034.012-.084.05-.12.065-.053.02-.12.07-.176.1-9.29 4.428-64.407 91.694 10.298 166.39z" fill="url(#I)"/><path d="M367.023 198.65c-1.05-.967-2.285-1.958-3.608-2.952l-1.493-1.1c-12.832-9.014-35.8-17.917-57.947-14.067 86.44 43.214 63.235 192.026-56.545 186.408a106.743 106.743 0 0 1-31.271-6.031 134.51 134.51 0 0 1-7.059-2.886c-1.356-.618-2.71-1.243-4.05-1.935.048.033.114.07.163.1 16.7 11.4 99.24 39.257 185.484-30.966l.133-.313c2.13-5.054 30.675-76.057-23.807-126.258z" fill="url(#J)"/><path d="M148.44 277.443s11.093-41.335 79.432-41.335c7.388 0 28.51-20.615 28.9-26.593s-43.7 18.352-90.233-3.54c-50.24-23.638-88.358 3.54-88.358 3.54s14.477 35.81 56.934 35.81c-4.453 39.286 16.32 85.1 66.6 109.124 1.124.537 2.18 1.124 3.334 1.64-29.348-15.17-53.582-43.834-56.61-78.644z" fill="url(#K)"/><path d="M478.71 166.353c-10.445-25.124-31.6-52.248-48.212-60.82 13.52 26.505 21.345 53.093 24.335 72.936 0 .04.015.136.047.4C427.706 111.135 381.627 83.823 344 24.355l-5.66-9.2a73.716 73.716 0 0 1-2.646-4.972A43.7 43.7 0 0 1 332.1.677a.626.626 0 0 0-.546-.644.818.818 0 0 0-.451 0c-.034.012-.084.05-.12.065-.053.02-.12.07-.176.1.027-.036.083-.117.1-.136-60.37 35.356-80.85 100.76-82.732 133.484 2.8-.194 5.592-.43 8.442-.43 45.053 0 84.29 24.77 105.3 61.484-12.832-9.014-35.8-17.917-57.947-14.067 86.44 43.214 63.235 192.026-56.545 186.408a106.743 106.743 0 0 1-31.271-6.031 134.51 134.51 0 0 1-7.059-2.886c-1.356-.618-2.71-1.243-4.05-1.935.048.033.114.07.163.1a144.108 144.108 0 0 1-3.5-1.743c1.124.537 2.18 1.124 3.334 1.64-29.35-15.168-53.584-43.833-56.61-78.643 0 0 11.093-41.335 79.432-41.335 7.388 0 28.51-20.615 28.9-26.593-.09-1.952-41.917-18.6-58.223-34.656-8.713-8.584-12.85-12.723-16.514-15.828a71.355 71.355 0 0 0-6.225-4.7 111.338 111.338 0 0 1-.674-58.732c-24.688 11.24-43.9 29-57.85 44.7h-.11c-9.527-12.067-8.855-51.873-8.312-60.184-.114-.515-7.107 3.63-8.023 4.255a175.073 175.073 0 0 0-23.486 20.12 210.478 210.478 0 0 0-22.435 26.916c0 .012-.007.026-.01.038 0-.013.007-.026.01-.038a202.838 202.838 0 0 0-32.247 72.805c-.115.52-.212 1.06-.324 1.586-.452 2.116-2.486 12.853-2.77 15.156-.022.177.02-.176 0 0a279.565 279.565 0 0 0-3.544 33.53c0 .4-.025.816-.025 1.227C16 388.418 123.6 496 256.324 496c118.865 0 217.56-86.288 236.882-199.63l1.092-9.27c4.777-41.2-.53-84.525-15.587-120.746zm-23.84 12.34l.04.26-.008-.026-.032-.233z" fill="url(#L)"/></svg>