<?xml version="1.0" encoding="UTF-8" standalone="no"?>
<!DOCTYPE svg PUBLIC "-//W3C//DTD SVG 1.1//EN" "http://www.w3.org/Graphics/SVG/1.1/DTD/svg11.dtd">
<svg width="100%" height="100%" viewBox="0 0 512 512" version="1.1" xmlns="http://www.w3.org/2000/svg" xmlns:xlink="http://www.w3.org/1999/xlink" xml:space="preserve" xmlns:serif="http://www.serif.com/" style="fill-rule:evenodd;clip-rule:evenodd;stroke-linejoin:round;stroke-miterlimit:2;">
    <path d="M449.8,338.41L262.478,338.41C256.998,338.41 252.488,342.92 252.488,348.4L252.488,378.371C252.488,422.215 288.566,458.293 332.41,458.293L436.059,458.293C468.942,458.292 496,431.234 496,398.351L496,372.127C496,357.141 481.015,338.41 449.8,338.41Z" style="fill:rgb(0,135,135);fill-rule:nonzero;"/>
    <path d="M449.8,338.41L262.478,338.41C256.998,338.41 252.488,342.92 252.488,348.4L252.488,378.371C252.488,422.215 288.566,458.293 332.41,458.293L436.059,458.293C468.942,458.292 496,431.234 496,398.351L496,372.127C496,357.141 481.015,338.41 449.8,338.41Z" style="fill:url(#_Linear1);fill-rule:nonzero;"/>
    <path d="M478.711,166.376C468.266,141.249 447.111,114.121 430.499,105.547C444.019,132.056 451.844,158.647 454.834,178.493C454.834,178.532 454.849,178.629 454.881,178.893C427.706,111.151 381.627,83.835 344,24.359C342.1,21.351 340.195,18.336 338.339,15.154C337.394,13.531 336.511,11.872 335.693,10.181C334.13,7.164 332.924,3.975 332.1,0.678C332.112,0.356 331.874,0.074 331.554,0.033C331.407,-0.009 331.25,-0.009 331.103,0.033C331.069,0.045 331.019,0.084 330.983,0.098C330.93,0.119 330.863,0.167 330.807,0.198C330.834,0.162 330.89,0.081 330.907,0.062C270.537,35.423 250.057,100.837 248.175,133.562C224.07,135.219 201.015,144.104 182.033,159.053C180.045,157.374 177.967,155.805 175.808,154.353C170.331,135.187 170.098,114.898 175.134,95.612C150.446,106.855 131.244,124.626 117.284,140.32L117.173,140.32C107.646,128.251 108.318,88.44 108.861,80.127C108.747,79.612 101.754,83.758 100.838,84.382C92.431,90.384 84.572,97.118 77.352,104.505C69.136,112.839 61.629,121.843 54.91,131.425C54.91,131.437 54.903,131.45 54.899,131.462L54.91,131.424C39.457,153.327 28.496,178.076 22.663,204.239C22.548,204.761 22.451,205.3 22.339,205.826C21.887,207.942 20.259,218.526 19.974,220.833C19.952,221.009 19.942,221.18 19.921,221.357C17.816,232.301 16.513,243.384 16.021,254.518C16.021,254.929 15.996,255.334 15.996,255.745C15.996,388.472 123.596,496.069 256.32,496.069C375.185,496.069 473.88,409.769 493.202,296.411C493.609,293.335 493.935,290.242 494.294,287.139C499.075,245.923 493.768,202.6 478.711,166.376ZM201.716,354.5C202.84,355.038 203.896,355.624 205.05,356.139C205.098,356.173 205.164,356.21 205.213,356.244C204.04,355.678 202.874,355.096 201.716,354.5ZM454.9,178.952L454.868,178.719C454.88,178.804 454.895,178.893 454.908,178.978L454.9,178.952Z" style="fill:url(#_Linear2);fill-rule:nonzero;"/>
    <path d="M478.711,166.376C468.266,141.249 447.111,114.121 430.499,105.547C444.019,132.056 451.844,158.647 454.834,178.493C454.834,178.435 454.845,178.541 454.87,178.719C454.882,178.804 454.897,178.893 454.91,178.978C477.585,240.456 465.232,302.978 447.431,341.178C419.892,400.278 353.216,460.865 248.855,457.91C136.1,454.714 36.766,371.04 18.223,261.446C14.844,244.164 18.223,235.388 19.923,221.357C17.852,232.174 17.063,235.299 16.023,254.518C16.023,254.929 15.998,255.334 15.998,255.745C15.998,388.472 123.598,496.069 256.322,496.069C375.187,496.069 473.882,409.769 493.204,296.411C493.611,293.335 493.937,290.242 494.296,287.139C499.075,245.923 493.768,202.6 478.711,166.376Z" style="fill:url(#_Radial3);fill-rule:nonzero;"/>
    <path d="M478.711,166.376C468.266,141.249 447.111,114.121 430.499,105.547C444.019,132.056 451.844,158.647 454.834,178.493C454.834,178.435 454.845,178.541 454.87,178.719C454.882,178.804 454.897,178.893 454.91,178.978C477.585,240.456 465.232,302.978 447.431,341.178C419.892,400.278 353.216,460.865 248.855,457.91C136.1,454.714 36.766,371.04 18.223,261.446C14.844,244.164 18.223,235.388 19.923,221.357C17.852,232.174 17.063,235.299 16.023,254.518C16.023,254.929 15.998,255.334 15.998,255.745C15.998,388.472 123.598,496.069 256.322,496.069C375.187,496.069 473.882,409.769 493.204,296.411C493.611,293.335 493.937,290.242 494.296,287.139C499.075,245.923 493.768,202.6 478.711,166.376Z" style="fill:url(#_Radial4);fill-rule:nonzero;"/>
    <path d="M361.922,194.624C362.446,194.992 362.922,195.359 363.415,195.724C357.384,185.018 349.873,175.217 341.105,166.608C266.4,91.905 321.516,4.626 330.811,0.194C330.838,0.158 330.894,0.077 330.911,0.058C270.541,35.419 250.061,100.833 248.179,133.558C250.979,133.363 253.771,133.128 256.621,133.128C301.672,133.131 340.91,157.905 361.922,194.624Z" style="fill:url(#_Radial5);fill-rule:nonzero;"/>
    <path d="M256.772,209.543C256.379,215.522 235.258,236.143 227.872,236.143C159.533,236.143 148.44,277.484 148.44,277.484C151.467,312.298 175.701,340.968 205.051,356.137C206.39,356.829 207.745,357.454 209.101,358.073C211.426,359.103 213.78,360.065 216.16,360.959C226.223,364.522 236.764,366.555 247.431,366.991C367.211,372.61 390.417,223.777 303.976,180.557C326.113,176.706 349.091,185.61 361.923,194.626C340.911,157.907 301.673,133.133 256.623,133.133C253.773,133.133 250.982,133.368 248.181,133.563C224.076,135.22 201.021,144.105 182.039,159.054C185.703,162.16 189.839,166.299 198.553,174.885C214.855,190.951 256.683,207.591 256.772,209.543Z" style="fill:url(#_Radial6);fill-rule:nonzero;"/>
    <path d="M256.772,209.543C256.379,215.522 235.258,236.143 227.872,236.143C159.533,236.143 148.44,277.484 148.44,277.484C151.467,312.298 175.701,340.968 205.051,356.137C206.39,356.829 207.745,357.454 209.101,358.073C211.426,359.103 213.78,360.065 216.16,360.959C226.223,364.522 236.764,366.555 247.431,366.991C367.211,372.61 390.417,223.777 303.976,180.557C326.113,176.706 349.091,185.61 361.923,194.626C340.911,157.907 301.673,133.133 256.623,133.133C253.773,133.133 250.982,133.368 248.181,133.563C224.076,135.22 201.021,144.105 182.039,159.054C185.703,162.16 189.839,166.299 198.553,174.885C214.855,190.951 256.683,207.591 256.772,209.543Z" style="fill:url(#_Radial7);fill-rule:nonzero;"/>
    <path d="M170.829,151.057C172.503,152.137 174.163,153.237 175.81,154.357C170.333,135.191 170.1,114.902 175.136,95.616C150.448,106.859 131.246,124.63 117.286,140.324C118.441,140.291 153.3,139.663 170.829,151.057Z" style="fill:url(#_Radial8);fill-rule:nonzero;"/>
    <path d="M18.223,261.446C36.766,371.04 136.1,454.714 248.855,457.907C353.216,460.862 419.892,400.28 447.431,341.175C465.231,302.975 477.585,240.456 454.91,178.975L454.902,178.949L454.87,178.716C454.845,178.538 454.83,178.432 454.834,178.49C454.834,178.529 454.849,178.626 454.881,178.89C463.405,234.559 435.091,288.49 390.83,324.954L390.697,325.267C304.452,395.5 221.923,367.643 205.213,356.24C204.039,355.675 202.872,355.093 201.713,354.496C151.431,330.464 130.659,284.649 135.113,245.357C92.656,245.357 78.179,209.543 78.179,209.543C78.179,209.543 116.3,182.36 166.539,206C213.069,227.9 256.767,209.544 256.772,209.541C256.683,207.589 214.855,190.949 198.549,174.881C189.836,166.295 185.699,162.156 182.035,159.05C180.047,157.371 177.969,155.802 175.81,154.35C174.162,153.232 172.501,152.132 170.829,151.05C153.301,139.656 118.441,140.284 117.286,140.314L117.175,140.314C107.648,128.245 108.32,88.434 108.863,80.121C108.749,79.606 101.756,83.752 100.84,84.376C92.433,90.378 84.574,97.112 77.354,104.499C69.137,112.835 61.63,121.841 54.91,131.425C54.91,131.437 54.903,131.45 54.899,131.462L54.91,131.424C39.457,153.327 28.496,178.076 22.663,204.239C22.548,204.761 14.013,242.086 18.223,261.446Z" style="fill:url(#_Radial9);fill-rule:nonzero;"/>
    <path d="M341.105,166.61C349.873,175.219 357.384,185.02 363.415,195.726C364.738,196.72 365.974,197.712 367.023,198.679C421.505,248.887 392.959,319.899 390.83,324.956C435.091,288.491 463.405,234.556 454.881,178.892C427.706,111.151 381.627,83.835 344,24.359C342.1,21.351 340.195,18.336 338.339,15.154C337.394,13.531 336.511,11.872 335.693,10.181C334.13,7.164 332.924,3.975 332.1,0.678C332.112,0.356 331.874,0.074 331.554,0.033C331.407,-0.009 331.25,-0.009 331.103,0.033C331.069,0.045 331.019,0.084 330.983,0.098C330.93,0.119 330.863,0.167 330.807,0.198C321.516,4.626 266.4,91.905 341.105,166.61Z" style="fill:url(#_Radial10);fill-rule:nonzero;"/>
    <path d="M367.023,198.679C365.974,197.712 364.738,196.72 363.415,195.726C362.926,195.359 362.446,194.992 361.922,194.626C349.09,185.61 326.112,176.706 303.975,180.557C390.416,223.777 367.21,372.61 247.43,366.991C236.763,366.555 226.222,364.522 216.159,360.959C213.779,360.064 211.425,359.102 209.1,358.073C207.744,357.454 206.389,356.829 205.05,356.137C205.098,356.171 205.164,356.208 205.213,356.242C221.923,367.642 304.452,395.504 390.697,325.271L390.83,324.958C392.959,319.9 421.505,248.887 367.023,198.679Z" style="fill:url(#_Radial11);fill-rule:nonzero;"/>
    <path d="M148.439,277.482C148.439,277.482 159.532,236.141 227.871,236.141C235.259,236.141 256.38,215.523 256.771,209.541C257.162,203.559 213.069,227.9 166.539,206C116.3,182.358 78.181,209.541 78.181,209.541C78.181,209.541 92.658,245.355 135.115,245.355C130.662,284.647 151.434,330.462 201.715,354.494C202.839,355.032 203.895,355.618 205.049,356.133C175.7,340.966 151.466,312.3 148.439,277.482Z" style="fill:url(#_Radial12);fill-rule:nonzero;"/>
    <path d="M478.711,166.376C468.266,141.249 447.111,114.121 430.499,105.547C444.019,132.056 451.844,158.647 454.834,178.493C454.834,178.532 454.849,178.629 454.881,178.893C427.706,111.151 381.627,83.835 344,24.359C342.1,21.351 340.195,18.336 338.339,15.154C337.394,13.531 336.511,11.872 335.693,10.181C334.13,7.164 332.924,3.975 332.1,0.678C332.112,0.356 331.874,0.074 331.554,0.033C331.407,-0.009 331.25,-0.009 331.103,0.033C331.069,0.045 331.019,0.084 330.983,0.098C330.93,0.119 330.863,0.167 330.807,0.198C330.834,0.162 330.89,0.081 330.907,0.062C270.537,35.423 250.057,100.837 248.175,133.562C250.975,133.367 253.767,133.132 256.617,133.132C301.67,133.132 340.908,157.906 361.917,194.625C349.085,185.609 326.107,176.705 303.97,180.556C390.411,223.776 367.205,372.609 247.425,366.99C236.758,366.554 226.217,364.521 216.154,360.958C213.774,360.063 211.42,359.101 209.095,358.072C207.739,357.453 206.384,356.828 205.045,356.136C205.093,356.17 205.159,356.207 205.208,356.241C204.034,355.676 202.867,355.094 201.708,354.497C202.832,355.035 203.888,355.621 205.042,356.136C175.692,340.967 151.458,312.297 148.431,277.483C148.431,277.483 159.524,236.142 227.863,236.142C235.251,236.142 256.372,215.524 256.763,209.542C256.674,207.59 214.846,190.95 198.54,174.882C189.827,166.296 185.69,162.157 182.026,159.051C180.038,157.372 177.96,155.803 175.801,154.351C170.324,135.185 170.091,114.896 175.127,95.61C150.439,106.853 131.237,124.624 117.277,140.318L117.166,140.318C107.639,128.249 108.311,88.438 108.854,80.125C108.74,79.61 101.747,83.756 100.831,84.38C92.424,90.382 84.565,97.116 77.345,104.503C69.131,112.838 61.627,121.843 54.91,131.425C54.91,131.437 54.903,131.45 54.899,131.462L54.91,131.424C39.457,153.327 28.496,178.076 22.663,204.239C22.548,204.761 22.451,205.3 22.339,205.826C21.887,207.942 19.853,218.68 19.569,220.984C19.547,221.161 19.59,220.808 19.569,220.984C17.714,232.081 16.531,243.279 16.025,254.518C16.025,254.929 16,255.334 16,255.745C16,388.472 123.6,496.069 256.324,496.069C375.189,496.069 473.884,409.769 493.206,296.411C493.613,293.335 493.939,290.242 494.298,287.139C499.075,245.923 493.768,202.6 478.711,166.376ZM454.87,178.719C454.882,178.804 454.897,178.893 454.91,178.978L454.902,178.952C454.891,178.87 454.88,178.8 454.87,178.719Z" style="fill:url(#_Linear13);fill-rule:nonzero;"/>
    <path d="M486.01,382.117L313.8,382.117C273.315,382.117 240,415.432 240,455.917L240,492.01C240,497.49 244.51,502 249.99,502L422.2,502C462.685,502 496,468.685 496,428.2L496,372.127C496,377.607 491.49,382.117 486.01,382.117Z" style="fill:rgb(32,18,58);fill-rule:nonzero;"/>
    <path d="M486.01,382.117L313.8,382.117C273.315,382.117 240,415.432 240,455.917L240,492.01C240,497.49 244.51,502 249.99,502L422.2,502C462.685,502 496,468.685 496,428.2L496,372.127C496,377.607 491.49,382.117 486.01,382.117Z" style="fill:url(#_Linear14);fill-rule:nonzero;"/>
    <g transform="matrix(5.57236,0,0,5.82129,-1278.72,-2265.6)">
        <text x="282.774px" y="469.607px" style="font-family:'Arial-BoldMT', 'Arial', sans-serif;font-weight:700;font-size:12px;fill:rgb(32,18,58);">ESR</text>
    </g>
    <defs>
        <linearGradient id="_Linear1" x1="0" y1="0" x2="1" y2="0" gradientUnits="userSpaceOnUse" gradientTransform="matrix(-64.838,-61.385,61.385,-64.838,444.856,453.42)"><stop offset="0" style="stop-color:rgb(5,64,150);stop-opacity:0.45"/><stop offset="0.05" style="stop-color:rgb(15,61,156);stop-opacity:0.4"/><stop offset="0.26" style="stop-color:rgb(47,53,177);stop-opacity:0.22"/><stop offset="0.47" style="stop-color:rgb(70,47,191);stop-opacity:0.1"/><stop offset="0.67" style="stop-color:rgb(84,43,200);stop-opacity:0.02"/><stop offset="0.86" style="stop-color:rgb(89,42,203);stop-opacity:0"/><stop offset="1" style="stop-color:rgb(89,42,203);stop-opacity:0"/></linearGradient>
        <linearGradient id="_Linear2" x1="0" y1="0" x2="1" y2="0" gradientUnits="userSpaceOnUse" gradientTransform="matrix(-398.957,384.92,-384.92,-398.957,446.898,76.848)"><stop offset="0" style="stop-color:rgb(255,244,79);stop-opacity:1"/><stop offset="0.05" style="stop-color:rgb(255,244,79);stop-opacity:1"/><stop offset="0.11" style="stop-color:rgb(255,232,71);stop-opacity:1"/><stop offset="0.23" style="stop-color:rgb(255,200,48);stop-opacity:1"/><stop offset="0.37" style="stop-color:rgb(255,152,14);stop-opacity:1"/><stop offset="0.4" style="stop-color:rgb(255,139,22);stop-opacity:1"/><stop offset="0.46" style="stop-color:rgb(255,103,42);stop-opacity:1"/><stop offset="0.53" style="stop-color:rgb(255,54,71);stop-opacity:1"/><stop offset="0.71" style="stop-color:rgb(227,21,135);stop-opacity:1"/><stop offset="1" style="stop-color:rgb(227,21,135);stop-opacity:1"/></linearGradient>
        <radialGradient id="_Radial3" cx="0" cy="0" r="1" gradientUnits="userSpaceOnUse" gradientTransform="matrix(501.009,0,0,501.009,428.463,55.06)"><stop offset="0" style="stop-color:rgb(255,189,79);stop-opacity:1"/><stop offset="0.13" style="stop-color:rgb(255,189,79);stop-opacity:1"/><stop offset="0.19" style="stop-color:rgb(255,172,49);stop-opacity:1"/><stop offset="0.25" style="stop-color:rgb(255,157,23);stop-opacity:1"/><stop offset="0.28" style="stop-color:rgb(255,152,14);stop-opacity:1"/><stop offset="0.4" style="stop-color:rgb(255,86,59);stop-opacity:1"/><stop offset="0.47" style="stop-color:rgb(255,55,80);stop-opacity:1"/><stop offset="0.71" style="stop-color:rgb(245,21,108);stop-opacity:1"/><stop offset="0.78" style="stop-color:rgb(235,8,120);stop-opacity:1"/><stop offset="0.86" style="stop-color:rgb(229,0,128);stop-opacity:1"/><stop offset="1" style="stop-color:rgb(229,0,128);stop-opacity:1"/></radialGradient>
        <radialGradient id="_Radial4" cx="0" cy="0" r="1" gradientUnits="userSpaceOnUse" gradientTransform="matrix(501.009,0,0,501.009,245.389,259.884)"><stop offset="0" style="stop-color:rgb(150,14,24);stop-opacity:1"/><stop offset="0.3" style="stop-color:rgb(150,14,24);stop-opacity:1"/><stop offset="0.35" style="stop-color:rgb(177,25,39);stop-opacity:0.74"/><stop offset="0.44" style="stop-color:rgb(219,41,61);stop-opacity:0.34"/><stop offset="0.5" style="stop-color:rgb(245,51,75);stop-opacity:0.09"/><stop offset="0.53" style="stop-color:rgb(255,55,80);stop-opacity:0"/><stop offset="1" style="stop-color:rgb(255,55,80);stop-opacity:0"/></radialGradient>
        <radialGradient id="_Radial5" cx="0" cy="0" r="1" gradientUnits="userSpaceOnUse" gradientTransform="matrix(362.962,0,0,362.962,305.796,-58.641)"><stop offset="0" style="stop-color:rgb(255,244,79);stop-opacity:1"/><stop offset="0.13" style="stop-color:rgb(255,244,79);stop-opacity:1"/><stop offset="0.25" style="stop-color:rgb(255,220,62);stop-opacity:1"/><stop offset="0.51" style="stop-color:rgb(255,157,18);stop-opacity:1"/><stop offset="1" style="stop-color:rgb(255,152,14);stop-opacity:1"/></radialGradient>
        <radialGradient id="_Radial6" cx="0" cy="0" r="1" gradientUnits="userSpaceOnUse" gradientTransform="matrix(238.553,0,0,238.553,189.976,390.752)"><stop offset="0" style="stop-color:rgb(58,142,230);stop-opacity:1"/><stop offset="0.35" style="stop-color:rgb(58,142,230);stop-opacity:1"/><stop offset="0.47" style="stop-color:rgb(92,121,240);stop-opacity:1"/><stop offset="0.67" style="stop-color:rgb(144,89,255);stop-opacity:1"/><stop offset="1" style="stop-color:rgb(193,57,230);stop-opacity:1"/></radialGradient>
        <radialGradient id="_Radial7" cx="0" cy="0" r="1" gradientUnits="userSpaceOnUse" gradientTransform="matrix(122.936,-29.7221,34.7812,143.931,252.082,201.187)"><stop offset="0" style="stop-color:rgb(144,89,255);stop-opacity:0"/><stop offset="0.21" style="stop-color:rgb(144,89,255);stop-opacity:0"/><stop offset="0.28" style="stop-color:rgb(140,79,243);stop-opacity:0.06"/><stop offset="0.75" style="stop-color:rgb(119,22,168);stop-opacity:0.45"/><stop offset="0.98" style="stop-color:rgb(110,0,139);stop-opacity:0.6"/><stop offset="1" style="stop-color:rgb(110,0,139);stop-opacity:0.6"/></radialGradient>
        <radialGradient id="_Radial8" cx="0" cy="0" r="1" gradientUnits="userSpaceOnUse" gradientTransform="matrix(171.616,0,0,171.616,239.064,34.558)"><stop offset="0" style="stop-color:rgb(255,226,38);stop-opacity:1"/><stop offset="0.12" style="stop-color:rgb(255,219,39);stop-opacity:1"/><stop offset="0.29" style="stop-color:rgb(255,200,42);stop-opacity:1"/><stop offset="0.5" style="stop-color:rgb(255,169,48);stop-opacity:1"/><stop offset="0.73" style="stop-color:rgb(255,126,55);stop-opacity:1"/><stop offset="0.79" style="stop-color:rgb(255,113,57);stop-opacity:1"/><stop offset="1" style="stop-color:rgb(255,113,57);stop-opacity:1"/></radialGradient>
        <radialGradient id="_Radial9" cx="0" cy="0" r="1" gradientUnits="userSpaceOnUse" gradientTransform="matrix(732.206,0,0,732.206,373.961,-74.293)"><stop offset="0" style="stop-color:rgb(255,244,79);stop-opacity:1"/><stop offset="0.11" style="stop-color:rgb(255,244,79);stop-opacity:1"/><stop offset="0.46" style="stop-color:rgb(255,152,14);stop-opacity:1"/><stop offset="0.62" style="stop-color:rgb(255,86,52);stop-opacity:1"/><stop offset="0.72" style="stop-color:rgb(255,54,71);stop-opacity:1"/><stop offset="0.9" style="stop-color:rgb(227,21,135);stop-opacity:1"/><stop offset="1" style="stop-color:rgb(227,21,135);stop-opacity:1"/></radialGradient>
        <radialGradient id="_Radial10" cx="0" cy="0" r="1" gradientUnits="userSpaceOnUse" gradientTransform="matrix(56.3186,533.686,-350.248,37.0094,304.679,7.22504)"><stop offset="0" style="stop-color:rgb(255,244,79);stop-opacity:1"/><stop offset="0.06" style="stop-color:rgb(255,232,71);stop-opacity:1"/><stop offset="0.17" style="stop-color:rgb(255,200,48);stop-opacity:1"/><stop offset="0.3" style="stop-color:rgb(255,152,14);stop-opacity:1"/><stop offset="0.36" style="stop-color:rgb(255,139,22);stop-opacity:1"/><stop offset="0.46" style="stop-color:rgb(255,103,42);stop-opacity:1"/><stop offset="0.57" style="stop-color:rgb(255,54,71);stop-opacity:1"/><stop offset="0.74" style="stop-color:rgb(227,21,135);stop-opacity:1"/><stop offset="1" style="stop-color:rgb(227,21,135);stop-opacity:1"/></radialGradient>
        <radialGradient id="_Radial11" cx="0" cy="0" r="1" gradientUnits="userSpaceOnUse" gradientTransform="matrix(457.125,0,0,457.125,235.021,98.121)"><stop offset="0" style="stop-color:rgb(255,244,79);stop-opacity:1"/><stop offset="0.14" style="stop-color:rgb(255,244,79);stop-opacity:1"/><stop offset="0.48" style="stop-color:rgb(255,152,14);stop-opacity:1"/><stop offset="0.59" style="stop-color:rgb(255,86,52);stop-opacity:1"/><stop offset="0.66" style="stop-color:rgb(255,54,71);stop-opacity:1"/><stop offset="0.9" style="stop-color:rgb(227,21,135);stop-opacity:1"/><stop offset="1" style="stop-color:rgb(227,21,135);stop-opacity:1"/></radialGradient>
        <radialGradient id="_Radial12" cx="0" cy="0" r="1" gradientUnits="userSpaceOnUse" gradientTransform="matrix(500.321,0,0,500.321,355.691,124.878)"><stop offset="0" style="stop-color:rgb(255,244,79);stop-opacity:1"/><stop offset="0.09" style="stop-color:rgb(255,244,79);stop-opacity:1"/><stop offset="0.23" style="stop-color:rgb(255,225,65);stop-opacity:1"/><stop offset="0.51" style="stop-color:rgb(255,175,30);stop-opacity:1"/><stop offset="0.63" style="stop-color:rgb(255,152,14);stop-opacity:1"/><stop offset="1" style="stop-color:rgb(255,152,14);stop-opacity:1"/></radialGradient>
        <linearGradient id="_Linear13" x1="0" y1="0" x2="1" y2="0" gradientUnits="userSpaceOnUse" gradientTransform="matrix(-339.469,339.469,-339.469,-339.469,442.104,74.788)"><stop offset="0" style="stop-color:rgb(255,244,79);stop-opacity:0.8"/><stop offset="0.17" style="stop-color:rgb(255,244,79);stop-opacity:0.8"/><stop offset="0.27" style="stop-color:rgb(255,244,79);stop-opacity:0.63"/><stop offset="0.49" style="stop-color:rgb(255,244,79);stop-opacity:0.22"/><stop offset="0.6" style="stop-color:rgb(255,244,79);stop-opacity:0"/><stop offset="1" style="stop-color:rgb(255,244,79);stop-opacity:0"/></linearGradient>
        <linearGradient id="_Linear14" x1="0" y1="0" x2="1" y2="0" gradientUnits="userSpaceOnUse" gradientTransform="matrix(234.067,99.04,-99.04,234.067,268.129,393.122)"><stop offset="0" style="stop-color:rgb(84,255,189);stop-opacity:1"/><stop offset="0" style="stop-color:rgb(84,255,189);stop-opacity:1"/><stop offset="1" style="stop-color:rgb(0,221,255);stop-opacity:1"/></linearGradient>
    </defs>
</svg>
