<svg xmlns="http://www.w3.org/2000/svg" xmlns:xlink="http://www.w3.org/1999/xlink" width="512" height="512">
  <defs>
    <radialGradient id="c" cx="428.463" cy="55.06" r="501.009" gradientUnits="userSpaceOnUse">
      <stop offset=".129" stop-color="#ffbd4f"/>
      <stop offset=".186" stop-color="#ffac31"/>
      <stop offset=".247" stop-color="#ff9d17"/>
      <stop offset=".283" stop-color="#ff980e"/>
      <stop offset=".403" stop-color="#ff563b"/>
      <stop offset=".467" stop-color="#ff3750"/>
      <stop offset=".71" stop-color="#f5156c"/>
      <stop offset=".782" stop-color="#eb0878"/>
      <stop offset=".86" stop-color="#e50080"/>
    </radialGradient>
    <radialGradient id="d" cx="245.389" cy="259.884" r="501.009" gradientUnits="userSpaceOnUse">
      <stop offset=".3" stop-color="#960e18"/>
      <stop offset=".351" stop-color="#b11927" stop-opacity=".74"/>
      <stop offset=".435" stop-color="#db293d" stop-opacity=".343"/>
      <stop offset=".497" stop-color="#f5334b" stop-opacity=".094"/>
      <stop offset=".53" stop-color="#ff3750" stop-opacity="0"/>
    </radialGradient>
    <radialGradient id="e" cx="305.796" cy="-58.641" r="362.962" gradientUnits="userSpaceOnUse">
      <stop offset=".132" stop-color="#fff44f"/>
      <stop offset=".252" stop-color="#ffdc3e"/>
      <stop offset=".506" stop-color="#ff9d12"/>
      <stop offset=".526" stop-color="#ff980e"/>
    </radialGradient>
    <radialGradient id="f" cx="189.976" cy="390.752" r="238.553" gradientUnits="userSpaceOnUse">
      <stop offset=".353" stop-color="#3a8ee6"/>
      <stop offset=".472" stop-color="#5c79f0"/>
      <stop offset=".669" stop-color="#9059ff"/>
      <stop offset="1" stop-color="#c139e6"/>
    </radialGradient>
    <radialGradient id="g" cx="252.158" cy="201.245" r="126.477" gradientTransform="matrix(.972 -.235 .275 1.138 -48.358 31.427)" gradientUnits="userSpaceOnUse">
      <stop offset=".206" stop-color="#9059ff" stop-opacity="0"/>
      <stop offset=".278" stop-color="#8c4ff3" stop-opacity=".064"/>
      <stop offset=".747" stop-color="#7716a8" stop-opacity=".45"/>
      <stop offset=".975" stop-color="#6e008b" stop-opacity=".6"/>
    </radialGradient>
    <radialGradient id="h" cx="239.064" cy="34.558" r="171.616" gradientUnits="userSpaceOnUse">
      <stop offset="0" stop-color="#ffe226"/>
      <stop offset=".121" stop-color="#ffdb27"/>
      <stop offset=".295" stop-color="#ffc82a"/>
      <stop offset=".502" stop-color="#ffa930"/>
      <stop offset=".732" stop-color="#ff7e37"/>
      <stop offset=".792" stop-color="#ff7139"/>
    </radialGradient>
    <radialGradient id="i" cx="373.961" cy="-74.293" r="732.206" gradientUnits="userSpaceOnUse">
      <stop offset=".113" stop-color="#fff44f"/>
      <stop offset=".456" stop-color="#ff980e"/>
      <stop offset=".622" stop-color="#ff5634"/>
      <stop offset=".716" stop-color="#ff3647"/>
      <stop offset=".904" stop-color="#e31587"/>
    </radialGradient>
    <radialGradient id="j" cx="304.586" cy="7.072" r="536.368" gradientTransform="matrix(.105 .995 -.653 .069 277.315 -296.326)" gradientUnits="userSpaceOnUse">
      <stop offset="0" stop-color="#fff44f"/>
      <stop offset=".06" stop-color="#ffe847"/>
      <stop offset=".168" stop-color="#ffc830"/>
      <stop offset=".304" stop-color="#ff980e"/>
      <stop offset=".356" stop-color="#ff8b16"/>
      <stop offset=".455" stop-color="#ff672a"/>
      <stop offset=".57" stop-color="#ff3647"/>
      <stop offset=".737" stop-color="#e31587"/>
    </radialGradient>
    <radialGradient id="k" cx="235.021" cy="98.121" r="457.125" gradientUnits="userSpaceOnUse">
      <stop offset=".137" stop-color="#fff44f"/>
      <stop offset=".48" stop-color="#ff980e"/>
      <stop offset=".592" stop-color="#ff5634"/>
      <stop offset=".655" stop-color="#ff3647"/>
      <stop offset=".904" stop-color="#e31587"/>
    </radialGradient>
    <radialGradient id="l" cx="355.691" cy="124.878" r="500.321" gradientUnits="userSpaceOnUse">
      <stop offset=".094" stop-color="#fff44f"/>
      <stop offset=".231" stop-color="#ffe141"/>
      <stop offset=".509" stop-color="#ffaf1e"/>
      <stop offset=".626" stop-color="#ff980e"/>
    </radialGradient>
    <linearGradient id="a" x1="444.856" y1="453.42" x2="380.018" y2="392.035" gradientUnits="userSpaceOnUse">
      <stop offset="0" stop-color="#054096" stop-opacity=".5"/>
      <stop offset=".054" stop-color="#0f3d9c" stop-opacity=".441"/>
      <stop offset=".261" stop-color="#2f35b1" stop-opacity=".249"/>
      <stop offset=".466" stop-color="#462fbf" stop-opacity=".111"/>
      <stop offset=".669" stop-color="#542bc8" stop-opacity=".028"/>
      <stop offset=".864" stop-color="#592acb" stop-opacity="0"/>
    </linearGradient>
    <linearGradient id="b" x1="446.898" y1="76.848" x2="47.941" y2="461.768" gradientUnits="userSpaceOnUse">
      <stop offset=".048" stop-color="#fff44f"/>
      <stop offset=".111" stop-color="#ffe847"/>
      <stop offset=".225" stop-color="#ffc830"/>
      <stop offset=".368" stop-color="#ff980e"/>
      <stop offset=".401" stop-color="#ff8b16"/>
      <stop offset=".462" stop-color="#ff672a"/>
      <stop offset=".534" stop-color="#ff3647"/>
      <stop offset=".705" stop-color="#e31587"/>
    </linearGradient>
    <linearGradient id="m" x1="442.104" y1="74.788" x2="102.635" y2="414.257" gradientUnits="userSpaceOnUse">
      <stop offset=".167" stop-color="#fff44f" stop-opacity=".8"/>
      <stop offset=".266" stop-color="#fff44f" stop-opacity=".634"/>
      <stop offset=".489" stop-color="#fff44f" stop-opacity=".217"/>
      <stop offset=".6" stop-color="#fff44f" stop-opacity="0"/>
    </linearGradient>
    <linearGradient id="n" x1="268.129" y1="393.122" x2="502.196" y2="492.162" gradientUnits="userSpaceOnUse">
      <stop offset=".001" stop-color="#54ffbd"/>
      <stop offset="1" stop-color="#0df"/>
    </linearGradient>
    <filter x="-5.1%" y="-11.5%" width="110.2%" height="120.0%" filterUnits="objectBoundingBox" id="shadow">
      <feOffset dx="0" dy="-2" in="SourceAlpha" result="shadowOffsetOuter1"></feOffset>
      <feGaussianBlur stdDeviation="4" in="shadowOffsetOuter1" result="shadowBlurOuter1"></feGaussianBlur>
      <feColorMatrix values="0 0 0 0 0.0352941176   0 0 0 0 0.125490196   0 0 0 0 0.301960784  0 0 0 0.24 0" type="matrix" in="shadowBlurOuter1"></feColorMatrix>
  </filter>
  </defs>
  <path d="M449.8 338.41H262.478a9.99 9.99 0 0 0-9.99 9.99v29.971a79.922 79.922 0 0 0 79.922 79.922h103.649A59.942 59.942 0 0 0 496 398.351v-26.224c0-14.986-14.985-33.717-46.2-33.717z" fill="#008787"/>
  <path d="M449.8 338.41H262.478a9.99 9.99 0 0 0-9.99 9.99v29.971a79.922 79.922 0 0 0 79.922 79.922h103.649A59.942 59.942 0 0 0 496 398.351v-26.224c0-14.986-14.985-33.717-46.2-33.717z" fill="url(#a)" opacity=".9"/>
  <path d="M478.711 166.376c-10.445-25.127-31.6-52.255-48.212-60.829 13.52 26.509 21.345 53.1 24.335 72.946 0 0.039 0.015 0.136 0.047 0.4C427.706 111.151 381.627 83.835 344 24.359c-1.9-3.008-3.805-6.023-5.661-9.205a73.481 73.481 0 0 1-2.646-4.973 43.726 43.726 0 0 1-3.593-9.503 0.627 0.627 0 0 0-0.546-0.645 0.818 0.818 0 0 0-0.451 0c-0.034 0.012-0.084 0.051-0.12 0.065-0.053 0.021-0.12 0.069-0.176 0.1 0.027-0.036 0.083-0.117 0.1-0.136-60.37 35.361-80.85 100.775-82.732 133.5a120.237 120.237 0 0 0-66.142 25.491 71.355 71.355 0 0 0-6.225-4.7 111.371 111.371 0 0 1-0.674-58.741c-24.688 11.243-43.89 29.014-57.85 44.708h-0.111c-9.527-12.069-8.855-51.88-8.312-60.193-0.114-0.515-7.107 3.631-8.023 4.255a175.136 175.136 0 0 0-23.486 20.123 210.48 210.48 0 0 0-22.442 26.92c0 0.012-0.007 0.025-0.011 0.037l0.011-0.038a202.891 202.891 0 0 0-32.247 72.815c-0.115 0.522-0.212 1.061-0.324 1.587-0.452 2.116-2.08 12.7-2.365 15.007-0.022 0.176-0.032 0.347-0.053 0.524a229.121 229.121 0 0 0-3.9 33.161c0 0.411-0.025 0.816-0.025 1.227 0 132.727 107.6 240.324 240.324 240.324 118.865 0 217.56-86.3 236.882-199.658 0.407-3.076 0.733-6.169 1.092-9.272 4.781-41.216-0.526-84.539-15.583-120.763zM201.716 354.5c1.124 0.538 2.18 1.124 3.334 1.639 0.048 0.034 0.114 0.071 0.163 0.105a153.736 153.736 0 0 1-3.497-1.744zm55.053-144.95zM454.9 178.952l-0.032-0.233c0.012 0.085 0.027 0.174 0.04 0.259z" fill="url(#b)"/>
  <path d="M478.711 166.376c-10.445-25.127-31.6-52.255-48.212-60.829 13.52 26.509 21.345 53.1 24.335 72.946 0-0.058 0.011 0.048 0.036 0.226 0.012 0.085 0.027 0.174 0.04 0.259 22.675 61.478 10.322 124-7.479 162.2-27.539 59.1-94.215 119.687-198.576 116.732C136.1 454.714 36.766 371.04 18.223 261.446c-3.379-17.282 0-26.058 1.7-40.089-2.071 10.817-2.86 13.942-3.9 33.161 0 0.411-0.025 0.816-0.025 1.227 0 132.727 107.6 240.324 240.324 240.324 118.865 0 217.56-86.3 236.882-199.658 0.407-3.076 0.733-6.169 1.092-9.272 4.779-41.216-0.528-84.539-15.585-120.763z" fill="url(#c)"/>
  <path d="M478.711 166.376c-10.445-25.127-31.6-52.255-48.212-60.829 13.52 26.509 21.345 53.1 24.335 72.946 0-0.058 0.011 0.048 0.036 0.226 0.012 0.085 0.027 0.174 0.04 0.259 22.675 61.478 10.322 124-7.479 162.2-27.539 59.1-94.215 119.687-198.576 116.732C136.1 454.714 36.766 371.04 18.223 261.446c-3.379-17.282 0-26.058 1.7-40.089-2.071 10.817-2.86 13.942-3.9 33.161 0 0.411-0.025 0.816-0.025 1.227 0 132.727 107.6 240.324 240.324 240.324 118.865 0 217.56-86.3 236.882-199.658 0.407-3.076 0.733-6.169 1.092-9.272 4.779-41.216-0.528-84.539-15.585-120.763z" fill="url(#d)"/>
  <path d="M361.922 194.624c0.524 0.368 1 0.735 1.493 1.1a130.724 130.724 0 0 0-22.31-29.116C266.4 91.905 321.516 4.626 330.811 0.194c0.027-0.036 0.083-0.117 0.1-0.136-60.37 35.361-80.85 100.775-82.732 133.5 2.8-0.195 5.592-0.43 8.442-0.43 45.051 0.003 84.289 24.777 105.301 61.496z" fill="url(#e)"/>
  <path d="M256.772 209.543c-0.393 5.979-21.514 26.6-28.9 26.6-68.339 0-79.432 41.341-79.432 41.341 3.027 34.814 27.261 63.484 56.611 78.653 1.339 0.692 2.694 1.317 4.05 1.936a131.932 131.932 0 0 0 7.059 2.886 106.745 106.745 0 0 0 31.271 6.032c119.78 5.619 142.986-143.214 56.545-186.434 22.137-3.851 45.115 5.053 57.947 14.069-21.012-36.719-60.25-61.493-105.3-61.493-2.85 0-5.641 0.235-8.442 0.43a120.237 120.237 0 0 0-66.142 25.491c3.664 3.106 7.8 7.245 16.514 15.831 16.302 16.066 58.13 32.706 58.219 34.658z" fill="url(#f)"/>
  <path d="M256.772 209.543c-0.393 5.979-21.514 26.6-28.9 26.6-68.339 0-79.432 41.341-79.432 41.341 3.027 34.814 27.261 63.484 56.611 78.653 1.339 0.692 2.694 1.317 4.05 1.936a131.932 131.932 0 0 0 7.059 2.886 106.745 106.745 0 0 0 31.271 6.032c119.78 5.619 142.986-143.214 56.545-186.434 22.137-3.851 45.115 5.053 57.947 14.069-21.012-36.719-60.25-61.493-105.3-61.493-2.85 0-5.641 0.235-8.442 0.43a120.237 120.237 0 0 0-66.142 25.491c3.664 3.106 7.8 7.245 16.514 15.831 16.302 16.066 58.13 32.706 58.219 34.658z" fill="url(#g)"/>
  <path d="M170.829 151.057a248.308 248.308 0 0 1 4.981 3.3 111.371 111.371 0 0 1-0.674-58.741c-24.688 11.243-43.89 29.014-57.85 44.708 1.155-0.033 36.014-0.661 53.543 10.733z" fill="url(#h)"/>
  <path d="M18.223 261.446C36.766 371.04 136.1 454.714 248.855 457.907c104.361 2.955 171.037-57.627 198.576-116.732 17.8-38.2 30.154-100.719 7.479-162.2l-0.008-0.026-0.032-0.233c-0.025-0.178-0.04-0.284-0.036-0.226 0 0.039 0.015 0.136 0.047 0.4 8.524 55.669-19.79 109.6-64.051 146.064l-0.133 0.313c-86.245 70.233-168.774 42.376-185.484 30.973a144.16 144.16 0 0 1-3.5-1.744c-50.282-24.032-71.054-69.847-66.6-109.139-42.457 0-56.934-35.814-56.934-35.814S116.3 182.36 166.539 206c46.53 21.9 90.228 3.544 90.233 3.541-0.089-1.952-41.917-18.592-58.223-34.66-8.713-8.586-12.85-12.725-16.514-15.831a71.355 71.355 0 0 0-6.225-4.7 277.403 277.403 0 0 0-4.981-3.3c-17.528-11.394-52.388-10.766-53.543-10.736h-0.111c-9.527-12.069-8.855-51.88-8.312-60.193-0.114-0.515-7.107 3.631-8.023 4.255a175.136 175.136 0 0 0-23.486 20.123 210.48 210.48 0 0 0-22.444 26.926c0 0.012-0.007 0.025-0.011 0.037l0.011-0.038a202.891 202.891 0 0 0-32.247 72.815c-0.115 0.522-8.65 37.847-4.44 57.207z" fill="url(#i)"/>
  <path d="M341.105 166.61a130.724 130.724 0 0 1 22.31 29.116c1.323 0.994 2.559 1.986 3.608 2.953 54.482 50.208 25.936 121.22 23.807 126.277 44.261-36.465 72.575-90.4 64.051-146.064C427.706 111.151 381.627 83.835 344 24.359c-1.9-3.008-3.805-6.023-5.661-9.205a73.481 73.481 0 0 1-2.646-4.973 43.726 43.726 0 0 1-3.593-9.503 0.627 0.627 0 0 0-0.546-0.645 0.818 0.818 0 0 0-0.451 0c-0.034 0.012-0.084 0.051-0.12 0.065-0.053 0.021-0.12 0.069-0.176 0.1-9.291 4.428-64.407 91.707 10.298 166.412z" fill="url(#j)"/>
  <path d="M367.023 198.679c-1.049-0.967-2.285-1.959-3.608-2.953-0.489-0.367-0.969-0.734-1.493-1.1-12.832-9.016-35.81-17.92-57.947-14.069 86.441 43.22 63.235 192.053-56.545 186.434a106.745 106.745 0 0 1-31.271-6.032 133.652 133.652 0 0 1-7.059-2.886c-1.356-0.619-2.711-1.244-4.05-1.936 0.048 0.034 0.114 0.071 0.163 0.105 16.71 11.4 99.239 39.262 185.484-30.971l0.133-0.313c2.129-5.058 30.675-76.071-23.807-126.279z" fill="url(#k)"/>
  <path d="M148.439 277.482s11.093-41.341 79.432-41.341c7.388 0 28.509-20.618 28.9-26.6S213.069 227.9 166.539 206c-50.239-23.642-88.358 3.541-88.358 3.541s14.477 35.814 56.934 35.814c-4.453 39.292 16.319 85.107 66.6 109.139 1.124 0.538 2.18 1.124 3.334 1.639-29.349-15.167-53.583-43.833-56.61-78.651z" fill="url(#l)"/>
  <path d="M478.711 166.376c-10.445-25.127-31.6-52.255-48.212-60.829 13.52 26.509 21.345 53.1 24.335 72.946 0 0.039 0.015 0.136 0.047 0.4C427.706 111.151 381.627 83.835 344 24.359c-1.9-3.008-3.805-6.023-5.661-9.205a73.481 73.481 0 0 1-2.646-4.973 43.726 43.726 0 0 1-3.593-9.503 0.627 0.627 0 0 0-0.546-0.645 0.818 0.818 0 0 0-0.451 0c-0.034 0.012-0.084 0.051-0.12 0.065-0.053 0.021-0.12 0.069-0.176 0.1 0.027-0.036 0.083-0.117 0.1-0.136-60.37 35.361-80.85 100.775-82.732 133.5 2.8-0.195 5.592-0.43 8.442-0.43 45.053 0 84.291 24.774 105.3 61.493-12.832-9.016-35.81-17.92-57.947-14.069 86.441 43.22 63.235 192.053-56.545 186.434a106.745 106.745 0 0 1-31.271-6.032 133.652 133.652 0 0 1-7.059-2.886c-1.356-0.619-2.711-1.244-4.05-1.936 0.048 0.034 0.114 0.071 0.163 0.105a144.16 144.16 0 0 1-3.5-1.744c1.124 0.538 2.18 1.124 3.334 1.639-29.35-15.169-53.584-43.839-56.611-78.653 0 0 11.093-41.341 79.432-41.341 7.388 0 28.509-20.618 28.9-26.6-0.089-1.952-41.917-18.592-58.223-34.66-8.713-8.586-12.85-12.725-16.514-15.831a71.355 71.355 0 0 0-6.225-4.7 111.371 111.371 0 0 1-0.674-58.741c-24.688 11.243-43.89 29.014-57.85 44.708h-0.111c-9.527-12.069-8.855-51.88-8.312-60.193-0.114-0.515-7.107 3.631-8.023 4.255a175.136 175.136 0 0 0-23.486 20.123 210.48 210.48 0 0 0-22.435 26.922c0 0.012-0.007 0.025-0.011 0.037l0.011-0.038a202.891 202.891 0 0 0-32.247 72.815c-0.115 0.522-0.212 1.061-0.324 1.587-0.452 2.116-2.486 12.854-2.77 15.158-0.022 0.177 0.021-0.176 0 0a279.633 279.633 0 0 0-3.544 33.534c0 0.411-0.025 0.816-0.025 1.227 0 132.727 107.6 240.324 240.324 240.324 118.865 0 217.56-86.3 236.882-199.658 0.407-3.076 0.733-6.169 1.092-9.272 4.777-41.216-0.53-84.539-15.587-120.763zm-23.841 12.343c0.012 0.085 0.027 0.174 0.04 0.259l-0.008-0.026c-0.011-0.082-0.022-0.152-0.032-0.233z" fill="url(#m)"/>
  <path d="M486.01 382.117H313.8a73.8 73.8 0 0 0-73.8 73.8v36.093a9.99 9.99 0 0 0 9.99 9.99H422.2a73.8 73.8 0 0 0 73.8-73.8v-56.073a9.99 9.99 0 0 1-9.99 9.99z" fill="#20123a" filter="url(#shadow)" />
  <path d="M486.01 382.117H313.8a73.8 73.8 0 0 0-73.8 73.8v36.093a9.99 9.99 0 0 0 9.99 9.99H422.2a73.8 73.8 0 0 0 73.8-73.8v-56.073a9.99 9.99 0 0 1-9.99 9.99z" fill="url(#n)" />
  <path d="M284.352 417.263h20.685c11.1 0 17.328 5 17.328 13.972a11.041 11.041 0 0 1-5.753 10.137c4.178 2.124 6.507 5.89 6.507 11.1 0 9.863-6.85 14.795-17.945 14.795h-20.822zm9.52 8.561V437.4h11.508c5.136 0 7.328-2.534 7.328-5.958 0-3.494-2.4-5.618-7.465-5.618zm0 20.274v12.466h11.439c5.274 0 8.014-2.4 8.014-6.3S311 446.1 304.9 446.1zm38.49-28.835h33.629v9.109h-23.972v11.233h23.972v9.11h-23.972v11.37h23.972v9.178h-33.629zm55.819 8.904h-13.9v-8.9h37.192v8.9H397.7v41.1h-9.52zm39.655-8.904h9.521l18.9 50h-9.931l-3.288-9.11H422.15l-3.287 9.11h-9.931zm-2.465 32.123h14.451l-7.191-19.863z" fill="#20123a"/>
</svg>
