<svg xmlns="http://www.w3.org/2000/svg" fill="none" viewBox="0 0 600 380"><path fill="#F60" d="M471.032 184.996c-29.669-7.054-57.237-13.501-97.514-2.27-36.344 10.135-60.393 29.585-84.299 44.141-6.059 3.688-18.809 7.13-28.589 8.54-22.227 3.198-31.762 10.497-31.762 10.497s9.13-.582 18.311 1.975c1.983.438 3.739 1.122 5.418 1.907-23.383 10.683-48.023 15.121-78.224 1.94-26.471-11.552-37.972-41.677-22.758-69.734 7.932-14.632 22.454-25.931 40.799-29.973 21.695-4.776 38.606-1.46 54.251 5.932s26.049 15.113 26.049 15.113-3.595-10.227-16.227-21.129a165 165 0 0 0-2.852-2.397c22.817 9.746 44.461 21.374 67.101 17.923 43.044-6.548 66.419-34.614 66.419-34.614s-29.475 17.788-65.676-6.717a2528 2528 0 0 1-10.168-6.928c21.669-11.484 34.842-32.521 34.842-32.521s-17.147 10-46.268 6.776c-18.345-2.034-37.28-7.974-54.039-15.628-41.179-18.8-83.801-35.441-128.364-22.176-1.797.532-3.57 1.089-5.325 1.654 5.03-17.366 4.684-35.812-.548-53.305-.92-.101-1.519 3.983-1.722 4.768-2.894 6.176-4.084 13.425-8.117 18.977-12.666 18.05-32.48 29.163-48.926 42.876C17.21 100.334 4.467 137.58.89 175.849c-3.257 34.833 2.287 70.595 19.063 100.796 21.94 39.508 68.232 74.932 122.237 84.282-4.877 1.418-8.159 2.203-14.843 3.316-6.624 1.106-15.594 1.486-15.594 1.486s15.054 5.755 28.218 7.797c26.944 4.185 59.82 2.421 80.941-6.312 44.082-18.227 61.431-43.475 79.573-66.57 11.755-15.139 17.856-23.738 29.585-38.395 48.09-60.064 106.847-72.257 139.014-68.637-.059.666 12.353-6.16 1.957-8.633z"/><path fill="url(#a)" d="M471.032 184.996c-29.669-7.054-57.237-13.501-97.514-2.27-36.344 10.135-60.393 29.585-84.299 44.141-6.059 3.688-18.809 7.13-28.589 8.54-22.227 3.198-31.762 10.497-31.762 10.497s9.13-.582 18.311 1.975c1.983.438 3.739 1.122 5.418 1.907-23.383 10.683-48.023 15.121-78.224 1.94-26.471-11.552-37.972-41.677-22.758-69.734 7.932-14.632 22.454-25.931 40.799-29.973 21.695-4.776 38.606-1.46 54.251 5.932s26.049 15.113 26.049 15.113-3.595-10.227-16.227-21.129a165 165 0 0 0-2.852-2.397c22.817 9.746 44.461 21.374 67.101 17.923 43.044-6.548 66.419-34.614 66.419-34.614s-29.475 17.788-65.676-6.717a2528 2528 0 0 1-10.168-6.928c21.669-11.484 34.842-32.521 34.842-32.521s-17.147 10-46.268 6.776c-18.345-2.034-37.28-7.974-54.039-15.628-41.179-18.8-83.801-35.441-128.364-22.176-1.797.532-3.57 1.089-5.325 1.654 5.03-17.366 4.684-35.812-.548-53.305-.92-.101-1.519 3.983-1.722 4.768-2.894 6.176-4.084 13.425-8.117 18.977-12.666 18.05-32.48 29.163-48.926 42.876C17.21 100.334 4.467 137.58.89 175.849c-3.257 34.833 2.287 70.595 19.063 100.796 21.94 39.508 68.232 74.932 122.237 84.282-4.877 1.418-8.159 2.203-14.843 3.316-6.624 1.106-15.594 1.486-15.594 1.486s15.054 5.755 28.218 7.797c26.944 4.185 59.82 2.421 80.941-6.312 44.082-18.227 61.431-43.475 79.573-66.57 11.755-15.139 17.856-23.738 29.585-38.395 48.09-60.064 106.847-72.257 139.014-68.637-.059.666 12.353-6.16 1.957-8.633z"/><path fill="url(#b)" d="M471.032 184.996c-29.669-7.054-57.237-13.501-97.514-2.27-36.344 10.135-60.393 29.585-84.299 44.141-6.059 3.688-18.809 7.13-28.589 8.54-22.227 3.198-31.762 10.497-31.762 10.497s9.13-.582 18.311 1.975c1.983.438 3.739 1.122 5.418 1.907-23.383 10.683-48.023 15.121-78.224 1.94-26.471-11.552-37.972-41.677-22.758-69.734 7.932-14.632 22.454-25.931 40.799-29.973 21.695-4.776 38.606-1.46 54.251 5.932s26.049 15.113 26.049 15.113-3.595-10.227-16.227-21.129a165 165 0 0 0-2.852-2.397c22.817 9.746 44.461 21.374 67.101 17.923 43.044-6.548 66.419-34.614 66.419-34.614s-29.475 17.788-65.676-6.717a2528 2528 0 0 1-10.168-6.928c21.669-11.484 34.842-32.521 34.842-32.521s-17.147 10-46.268 6.776c-18.345-2.034-37.28-7.974-54.039-15.628-41.179-18.8-83.801-35.441-128.364-22.176-1.797.532-3.57 1.089-5.325 1.654 5.03-17.366 4.684-35.812-.548-53.305-.92-.101-1.519 3.983-1.722 4.768-2.894 6.176-4.084 13.425-8.117 18.977-12.666 18.05-32.48 29.163-48.926 42.876C17.21 100.334 4.467 137.58.89 175.849c-3.257 34.833 2.287 70.595 19.063 100.796 21.94 39.508 68.232 74.932 122.237 84.282-4.877 1.418-8.159 2.203-14.843 3.316-6.624 1.106-15.594 1.486-15.594 1.486s15.054 5.755 28.218 7.797c26.944 4.185 59.82 2.421 80.941-6.312 44.082-18.227 61.431-43.475 79.573-66.57 11.755-15.139 17.856-23.738 29.585-38.395 48.09-60.064 106.847-72.257 139.014-68.637-.059.666 12.353-6.16 1.957-8.633z" opacity=".8"/><path fill="url(#c)" d="M260.63 235.415c-22.227 3.198-31.762 10.497-31.762 10.497s9.13-.582 18.311 1.975c1.983.439 3.739 1.122 5.418 1.907-23.383 10.683-48.023 15.121-78.224 1.941-26.471-11.552-37.972-41.677-22.758-69.735 7.932-14.632 22.454-25.931 40.799-29.973 21.695-4.776 38.606-1.46 54.251 5.932s26.049 15.113 26.049 15.113-3.595-10.227-16.227-21.129a169 169 0 0 0-2.852-2.397c22.817 9.747 44.461 21.375 67.101 17.923 43.044-6.548 66.419-34.614 66.419-34.614s-29.475 17.788-65.676-6.717a2528 2528 0 0 1-10.168-6.928c21.669-11.484 34.842-32.52 34.842-32.52s-17.147 9.999-46.268 6.775c-18.345-2.034-37.28-7.974-54.039-15.628-41.179-18.8-83.801-35.44-128.364-22.176-1.797.532-3.57 1.089-5.325 1.654 5.03-17.366 4.684-35.812-.548-53.305-.92-.101-1.519 3.983-1.722 4.768-2.894 6.177-4.084 13.425-8.117 18.978-12.666 18.05-32.48 29.163-48.926 42.875C17.21 100.342 4.467 137.589.89 175.857c-3.257 34.834 2.287 70.595 19.063 100.796 21.94 39.509 68.232 74.933 122.237 84.282-4.877 1.418-8.159 2.203-14.843 3.317-6.624 1.105-15.594 1.485-15.594 1.485s15.054 5.755 28.218 7.797c26.944 4.185 59.82 2.422 80.941-6.312 44.082-18.227 61.431-43.474 79.573-66.57 11.755-15.139-30.065-66.655-39.837-65.245z" opacity=".8"/><path fill="url(#d)" d="M599.539 212.75c-1.78-2.346-4.826 1.359-18.766-1.283-10.185-1.932-17.156-5.982-19.054-7.974-.684-.709-.549-.641 2.759-2.852 8.844-5.899 17.712-7.586 24.573-8.185 6.683-.583 9.822-3.688 10.252-5.122.211-.709.388-1.494-.388-2.085-.785-.599-3.51-1.375-5.274-2.236-3.62-1.789-5.206-3.907-8.666-6.987-2.245-1.991-5.78-3.35-9.94-4.303-2.017-.464-2.836-1.089-3.317-1.528-6.371-5.814-13.223-9.586-15.619-8.202-1.477.853-.27 6.405.802 10.607.413 1.637.312 2.439-.456 2.962-2.279 1.561-8.093 5.46-11.586 7.249-4.785 2.447-23.205 2.489-33.872 1.316-16.623-2.219-27.188-4.135-39.685-1.46-4.515.971-11.578-.43-16.16-1.325-.244-.05-.481-.092-.725-.143-.329-.068-.667-.135-1.004-.203q-.027.002-.043-.008a254 254 0 0 0-8.362-1.612 165 165 0 0 0-6.447-1.029c-19.087-2.743-39.508-2.726-65.043 4.396-36.344 10.135-60.393 29.585-84.299 44.141-6.059 3.688-18.809 7.131-28.589 8.54-22.227 3.198-31.762 10.497-31.762 10.497s9.13-.582 18.311 1.975c1.983.438 3.739 1.122 5.418 1.907-23.383 10.683-48.023 15.121-78.224 1.941-26.471-11.553-37.972-41.677-22.758-69.735 7.932-14.632 22.455-25.931 40.799-29.973 21.695-4.776 38.606-1.46 54.251 5.932 16.007 7.561 26.049 15.113 26.049 15.113s-3.595-10.227-16.227-21.129a165 165 0 0 0-2.852-2.397c22.817 9.746 44.461 21.374 67.101 17.923 43.044-6.548 66.419-34.614 66.419-34.614s-29.475 17.788-65.676-6.717a2528 2528 0 0 1-10.168-6.928c21.669-11.484 34.842-32.521 34.842-32.521s-17.147 10-46.268 6.776c-18.345-2.034-37.28-7.974-54.039-15.628-41.179-18.8-83.801-35.441-128.364-22.176a233 233 0 0 0-5.325 1.654c5.03-17.366 4.684-35.812-.548-53.305-.92-.101-1.519 3.983-1.722 4.768-2.894 6.176-4.084 13.425-8.117 18.978-12.666 18.05-32.48 29.162-48.926 42.875C17.21 100.35 4.467 137.598.89 175.866c-3.257 34.833 2.287 70.595 19.063 100.796 21.94 39.508 68.232 74.933 122.237 84.282-4.877 1.418-8.159 2.203-14.843 3.316-6.624 1.106-15.594 1.486-15.594 1.486s15.054 5.755 28.218 7.797c26.944 4.185 59.82 2.421 80.941-6.312 44.082-18.227 61.431-43.475 79.573-66.57 11.755-15.139 17.856-23.737 29.585-38.395 16.413-20.505 34.074-35.424 51.491-46.039.008 0 .025-.017.034-.017h.017c7.645-4.245 15.518-8.43 23.467-11.747.422-.177.852-.354 1.274-.523 14.531-5.881 32.791-9.603 44.563-10.632q4.139-.263 7.974-.236c1.738.109 2.97.371 3.586.793.422.295.557.835.152 1.164-1.755 1.435-6.075 3.68-6.531 3.933-5.131 2.877-9.324 2.135-12.818 3.122-3.738 1.055-4.81 3.19-9.636 5.417-3.713 1.713-6.262 2.785-10.194 3.021-5.088.312-5.215 5.24 2.827 4.608 6.118-.481 6.835-.566 12.219-2.051 11.206-3.097 18.066 1.553 33.719-2.591 5.139-1.358 15.873-2.455 29.906.515 11.046 2.338 27.171 4.869 36.175 4.397 2.278-.119 15.898.025 20.092 1.021 10.117 2.835 14.117 1.417 22.522 1.848 6.43.329 11.915.371 14.505-.313 2.565-.675 5.755-2.97 4.126-5.181z" opacity=".8"/><path fill="url(#e)" d="M174.39 251.718c-26.471-11.552-37.973-41.677-22.758-69.734 7.932-14.632 22.454-25.931 40.799-29.973 21.695-4.776 38.605-1.46 54.25 5.932s26.049 15.113 26.049 15.113-3.594-10.227-16.227-21.13c-.962-.827-1.907-1.62-2.852-2.396 22.817 9.746 44.462 21.374 67.102 17.923 43.044-6.548 66.418-34.614 66.418-34.614s-29.475 17.788-65.675-6.717a2601 2601 0 0 1-10.169-6.928c21.67-11.485 34.842-32.521 34.842-32.521s-17.146 9.999-46.267 6.776c-18.345-2.034-37.281-7.975-54.039-15.628-41.18-18.8-83.802-35.441-128.365-22.176a232 232 0 0 0-5.324 1.654" opacity=".8"/><path fill="url(#f)" d="M53.89 279.084c-12.775-15.679-38.065-59.803-28.555-114.171 4.75-27.155 19.459-47.711 35.61-63.98 13.231-13.324 31.019-22.96 46.487-28.184 18.572-6.91 30.732-7.788 50.579-8.995-10.421 3.35-18.59 7.544-28.741 14.708-9.054 6.388-24.151 22.792-24.151 22.792s36.817-32.446 93.624-16.624c37.027 10.312 61.743 34.96 61.743 34.96s-36.31-11.636-54.225-14.91c-22.555-4.126-30.799-4-53.465 4.177-32.58 11.746-49.145 42.976-52.335 45.356.946-10.86 5.502-28.927 13.384-36.572-16.818 3.949-31.5 33.399-35.585 47.896-3.932 13.983-2.75 18.176-1.991 32.074 1.341 24.759 15.265 46.496 30.985 64.048 1.57 2.236 3.629 3.847 4.692 6.37 1.038 1.604 2.202 1.486.236 2.979-4.548 1.536-9.653 2.262-14.252 3.924l-44.031 4.143z" opacity=".6"/><path fill="url(#g)" d="M151.615 182.001c4.987-9.207 12.59-17.088 22.108-22.674a36.6 36.6 0 0 1 2.835-6.658c11.257-20.581 52.723-26.825 84.122-10.21 52.326 27.686 78.595 8.32 78.595 8.32s-28.775-3.181-65.937-38.555c-22.362-21.282-69.009-37.078-96.754-27.99-43.002 14.084-77.456 69.532-31.745 122.575.143-8.1 2.295-16.539 6.776-24.808"/><path fill="url(#h)" d="M99.39 197.451c5.847-44.276 37.879-67.743 52.63-76.021 30.125-16.91 71.844 1.671 71.844 1.671s-47.432-.355-78.528 30.909c-19.357 19.459-15.037 39.264-10.024 70.174z" opacity=".69"/><path fill="url(#i)" d="M28.617 181.638s-7.89 10.32-4.624 33.416 10.489 38.605 10.489 38.605l-14.235-17.256s-.245 9.079 11.746 32.167c10.86 20.901 28.496 30.125 38.386 35.728 9.881 5.603 19.307 6.514 34.614-.819s-7.3-58.376-22.176-85.793c-14.877-27.407-50.377-58.806-54.2-36.048" opacity=".8"/><path fill="url(#j)" d="M297.387 290.18c-27.568 20.885-36.757 32.581-60.148 40.099-23.392 7.519-62.655.836-62.655.836l25.062 12.531s-28.21 10.565-71.937.928c-41.424-9.13-59.955-17.265-83.818-36.015 24.665 25.484 59.482 45.66 98.289 52.377-4.877 1.418-8.159 2.202-14.843 3.316-6.624 1.106-15.594 1.485-15.594 1.485s15.054 5.755 28.218 7.797c26.944 4.186 59.82 2.422 80.941-6.311 44.082-18.227 61.431-43.475 79.574-66.571 10.649-13.712 16.665-22.074 26.428-34.42-8.522 7.3-18.691 15.746-29.509 23.948z" opacity=".7"/><path fill="url(#k)" d="M338.178 230.994c-5.012 8.809-12.345 10.472-62.916 33.044-8.919 3.983-68.292 31.492-116.981 10.354-52.706-22.876-38.437-80.544-38.437-80.544s-17.669 20.033-15.982 48.554c1.03 17.451 11.443 35.72 9.046 33.543-3.932-3.57-8.295-7.308-11.383-10.995-5.721-6.827-11.865-14.658-11.865-14.658s-6.067 16.286 15.502 43.601c13.653 17.299 55.608 43.787 85.894 50.428 17.248 3.78 39.061 5.848 62.114 5.476 21.923-15.282 34.412-32.749 47.289-49.145 11.755-15.138 17.855-23.737 29.585-38.394 8.345-10.422 17.003-19.4 25.796-27.104-8.953-4.81-16.109-6.936-17.679-4.169z" opacity=".7"/><path fill="url(#l)" d="M583.32 176.448s-2.599-1.224-5.181-4.245c-2.582-3.012-5.586-6.084-7.518-7.713-2.161-1.814-5.156-3.586-6.515-2.759-.818.489-.363 2.835-.135 4.574.625 4.641 4.624 11.645 4.624 11.645l14.725-1.511z"/><path fill="url(#m)" d="M490.785 208.843s-10.37 2.278-18.834 4.809c-7.721 2.313-15.881 5.19-18.775 6.371-4.928 2.026-9.527 7.249-15.89 9.308-4.134 1.333-8.472-2.498-2.287-4.869 5.409-2.076 5.882-6.717 12.304-10.396 1.772-1.013 3.839-1.072 5.4-2.16 9.274-6.43 14.43-14.43 15.366-14.185 2 .515 22.716 11.113 22.716 11.113z"/><path fill="url(#n)" d="M528.024 203.045s10.666-4.869 27.939 6.97c2.759 1.891 19.99 9.19 24.319 11.164 9.451 4.591 12.042 2.431 13.763 4.253 2.532 2.127-1.848 5.89-10.219 3.452-2.683-.785-15.155-4.16-20.201-6.127-10.725-4.185-18.353-7.721-21.897-9.214-1.908-.802-13.721-10.498-13.721-10.498z"/><path fill="url(#o)" d="M599.539 212.749c-1.781-2.346-4.827 1.359-18.767-1.282-10.185-1.933-17.155-5.983-19.054-7.975-.683-.708-.548-.641 2.759-2.852 8.844-5.898 17.713-7.586 24.573-8.185 6.683-.582 9.822-3.687 10.253-5.122.21-.709.388-1.494-.389-2.084-.784-.599-3.51-1.376-5.274-2.236-3.62-1.789-5.206-3.907-8.666-6.987-2.244-1.992-5.78-3.35-9.94-4.304-2.017-.464-2.835-1.088-3.316-1.527-6.371-5.814-13.223-9.586-15.62-8.202-1.477.852-.27 6.404.802 10.607.413 1.637.312 2.438-.456 2.962-2.278 1.561-8.092 5.459-11.586 7.248-4.784 2.447-23.205 2.489-33.871 1.316-16.624-2.219-27.189-4.134-39.686-1.459-4.514.97-11.577-.431-16.159-1.325-.245-.051-.481-.093-.726-.144l-1.004-.202c-5.063-1.004-9.974-2.008-15.451-2.734-.033 0-.059-.009-.093-.017a4 4 0 0 0-.329-.042c-.092-.009-.177-.026-.261-.034a2 2 0 0 1-.237-.034c-16.674-2.253-25.357 5.553-59.27 40.217 1.316-.742 2.582-1.443 3.822-2.135h.017c7.645-4.244 15.518-8.429 23.467-11.746.422-.177.852-.354 1.274-.523 21.856-8.843 52.166-12.809 56.124-10.075.422.295.557.835.152 1.164-1.756 1.435-6.076 3.679-6.532 3.933-5.13 2.877-9.324 2.134-12.818 3.122-3.738 1.054-4.809 3.189-9.636 5.417-3.713 1.713-6.261 2.785-10.194 3.021-5.088.312-5.215 5.24 2.827 4.607 6.118-.481 6.835-.565 12.219-2.05 11.206-3.097 18.066 1.553 33.719-2.591 5.139-1.358 15.873-2.455 29.906.515 11.046 2.337 27.172 4.869 36.175 4.396 2.279-.118 15.898.026 20.092 1.021 10.118 2.836 14.117 1.418 22.522 1.848 6.43.33 11.915.372 14.505-.312 2.566-.675 5.755-2.97 4.127-5.181z"/><path fill="url(#p)" d="M599.539 212.749c-1.781-2.346-4.827 1.359-18.767-1.282-10.185-1.933-17.155-5.983-19.054-7.975-.683-.708-.548-.641 2.759-2.852 8.844-5.898 17.713-7.586 24.573-8.185 6.683-.582 9.822-3.687 10.253-5.122.21-.709.388-1.494-.389-2.084-.784-.599-3.51-1.376-5.274-2.236-3.62-1.789-5.206-3.907-8.666-6.987-2.244-1.992-5.78-3.35-9.94-4.304-2.017-.464-2.835-1.088-3.316-1.527-6.371-5.814-13.223-9.586-15.62-8.202-1.477.852-.27 6.404.802 10.607.413 1.637.312 2.438-.456 2.962-2.278 1.561-8.092 5.459-11.586 7.248-4.784 2.447-23.205 2.489-33.871 1.316-16.624-2.219-27.189-4.134-39.686-1.459-4.514.97-11.577-.431-16.159-1.325-.245-.051-.481-.093-.726-.144l-1.004-.202c-5.063-1.004-9.974-2.008-15.451-2.734-.033 0-.059-.009-.093-.017a4 4 0 0 0-.329-.042c-.092-.009-.177-.026-.261-.034a2 2 0 0 1-.237-.034c-16.674-2.253-25.357 5.553-59.27 40.217 1.316-.742 2.582-1.443 3.822-2.135h.017c7.645-4.244 15.518-8.429 23.467-11.746.422-.177.852-.354 1.274-.523 21.856-8.843 52.166-12.809 56.124-10.075.422.295.557.835.152 1.164-1.756 1.435-6.076 3.679-6.532 3.933-5.13 2.877-9.324 2.134-12.818 3.122-3.738 1.054-4.809 3.189-9.636 5.417-3.713 1.713-6.261 2.785-10.194 3.021-5.088.312-5.215 5.24 2.827 4.607 6.118-.481 6.835-.565 12.219-2.05 11.206-3.097 18.066 1.553 33.719-2.591 5.139-1.358 15.873-2.455 29.906.515 11.046 2.337 27.172 4.869 36.175 4.396 2.279-.118 15.898.026 20.092 1.021 10.118 2.836 14.117 1.418 22.522 1.848 6.43.33 11.915.372 14.505-.312 2.566-.675 5.755-2.97 4.127-5.181z"/><path fill="url(#q)" d="M599.539 212.749c-1.78-2.346-4.826 1.359-18.766-1.282-10.186-1.933-17.156-5.983-19.054-7.975-.684-.708-.549-.641 2.759-2.852 8.843-5.898 17.712-7.586 24.573-8.185 6.683-.582 9.822-3.687 10.252-5.122.211-.709.388-1.494-.388-2.084-.785-.599-3.51-1.376-5.274-2.236-3.62-1.789-5.206-3.907-8.666-6.987-2.245-1.992-5.78-3.35-9.941-4.304-2.016-.464-2.835-1.088-3.316-1.527-6.371-5.814-13.223-9.586-15.619-8.202-1.477.852-.27 6.404.801 10.607.414 1.637.313 2.438-.455 2.962-2.279 1.561-8.093 5.459-11.586 7.248-4.785 2.447-23.206 2.489-33.872 1.316-16.623-2.219-27.188-4.134-39.685-1.459-7.131 1.527-18.185-2.363-34.268-4.532-16.674-2.253-25.358 5.553-59.271 40.217 1.316-.742 2.582-1.443 3.822-2.135h.017c13.89-7.712 25.028-13.315 39.888-17.349 27.467-7.459 39.973-5.696 40.977-4.995.422.295.557.835.152 1.164-1.755 1.435-6.076 3.679-6.532 3.933-5.13 2.877-9.324 2.134-12.817 3.122-3.739 1.054-4.81 3.189-9.637 5.417-3.713 1.713-6.261 2.785-10.194 3.021-5.088.312-5.214 5.24 2.827 4.607 6.118-.481 6.835-.565 12.219-2.05 11.206-3.097 18.067 1.553 33.72-2.591 5.139-1.358 15.872-2.455 29.905.515 11.046 2.337 27.172 4.869 36.175 4.396 2.279-.118 15.898.026 20.092 1.021 10.118 2.836 14.118 1.418 22.522 1.848 6.43.33 11.915.372 14.506-.312 2.565-.675 5.755-2.97 4.126-5.181z" opacity=".8"/><path fill="url(#r)" d="M599.539 212.749c-1.78-2.346-4.826 1.359-18.766-1.282-10.186-1.933-17.156-5.983-19.054-7.975-.684-.708-.549-.641 2.759-2.852 8.843-5.898 17.712-7.586 24.573-8.185 6.683-.582 9.822-3.687 10.252-5.122.211-.709.388-1.494-.388-2.084-.785-.599-3.51-1.376-5.274-2.236-3.62-1.789-5.206-3.907-8.666-6.987-2.245-1.992-5.78-3.35-9.941-4.304-2.016-.464-2.835-1.088-3.316-1.527-6.371-5.814-13.223-9.586-15.619-8.202-1.477.852-.27 6.404.801 10.607.414 1.637.313 2.438-.455 2.962-2.279 1.561-8.093 5.459-11.586 7.248-4.785 2.447-23.206 2.489-33.872 1.316-16.623-2.219-27.188-4.134-39.685-1.459-7.131 1.527-18.185-2.363-34.268-4.532-16.674-2.253-25.358 5.553-59.271 40.217 1.316-.742 2.582-1.443 3.822-2.135h.017c13.89-7.712 25.028-13.315 39.888-17.349 27.467-7.459 39.973-5.696 40.977-4.995.422.295.557.835.152 1.164-1.755 1.435-6.076 3.679-6.532 3.933-5.13 2.877-9.324 2.134-12.817 3.122-3.739 1.054-4.81 3.189-9.637 5.417-3.713 1.713-6.261 2.785-10.194 3.021-5.088.312-5.214 5.24 2.827 4.607 6.118-.481 6.835-.565 12.219-2.05 11.206-3.097 18.067 1.553 33.72-2.591 5.139-1.358 15.872-2.455 29.905.515 11.046 2.337 27.172 4.869 36.175 4.396 2.279-.118 15.898.026 20.092 1.021 10.118 2.836 14.118 1.418 22.522 1.848 6.43.33 11.915.372 14.506-.312 2.565-.675 5.755-2.97 4.126-5.181z" opacity=".8"/><path fill="url(#s)" d="M471.302 182.658c12.497-2.675 23.061-.759 39.685 1.46 10.666 1.173 29.087 1.131 33.872-1.316 3.493-1.789 9.307-5.688 11.585-7.249.76-.523.87-1.325.456-2.962-1.063-4.202-2.278-9.754-.802-10.607 2.397-1.384 9.249 2.388 15.62 8.202.481.439 1.299 1.064 3.316 1.528 4.16.953 7.696 2.32 9.94 4.303 3.46 3.072 5.055 5.198 8.667 6.987 1.755.869 4.489 1.637 5.274 2.236.768.591.599 1.367.388 2.085-.431 1.434-3.561 4.54-10.253 5.122-6.86.599-15.72 2.287-24.572 8.185-3.308 2.211-3.435 2.135-2.76 2.852 1.899 1.992 8.869 6.042 19.054 7.974 13.94 2.642 16.987-1.054 18.767 1.283 1.629 2.219-1.561 4.506-4.126 5.181-2.591.684-8.076.642-14.506.312-8.404-.43-12.396.988-22.522-1.848-4.194-.995-17.813-1.139-20.091-1.021-9.004.473-25.13-2.059-36.176-4.396-14.033-2.979-24.766-1.873-29.905-.515-15.653 4.135-22.514-.506-33.72 2.591-5.383 1.485-6.101 1.569-12.219 2.05-8.041.633-7.915-4.295-2.826-4.607 3.94-.236 6.48-1.308 10.193-3.021 4.827-2.228 5.899-4.363 9.637-5.417 3.493-.988 7.687-.245 12.818-3.123.447-.253 6.531-3.932 6.531-3.932l8.683-12.354z"/><path fill="url(#t)" d="M471.302 182.658c12.497-2.675 23.061-.759 39.685 1.46 10.666 1.173 29.087 1.131 33.872-1.316 3.493-1.789 9.307-5.688 11.585-7.249.76-.523.87-1.325.456-2.962-1.063-4.202-2.278-9.754-.802-10.607 2.397-1.384 9.249 2.388 15.62 8.202.481.439 1.299 1.064 3.316 1.528 4.16.953 7.696 2.32 9.94 4.303 3.46 3.072 5.055 5.198 8.667 6.987 1.755.869 4.489 1.637 5.274 2.236.768.591.599 1.367.388 2.085-.431 1.434-3.561 4.54-10.253 5.122-6.86.599-15.72 2.287-24.572 8.185-3.308 2.211-3.435 2.135-2.76 2.852 1.899 1.992 8.869 6.042 19.054 7.974 13.94 2.642 16.987-1.054 18.767 1.283 1.629 2.219-1.561 4.506-4.126 5.181-2.591.684-8.076.642-14.506.312-8.404-.43-12.396.988-22.522-1.848-4.194-.995-17.813-1.139-20.091-1.021-9.004.473-25.13-2.059-36.176-4.396-14.033-2.979-24.766-1.873-29.905-.515-15.653 4.135-22.514-.506-33.72 2.591-5.383 1.485-6.101 1.569-12.219 2.05-8.041.633-7.915-4.295-2.826-4.607 3.94-.236 6.48-1.308 10.193-3.021 4.827-2.228 5.899-4.363 9.637-5.417 3.493-.988 7.687-.245 12.818-3.123.447-.253 6.531-3.932 6.531-3.932l8.683-12.354z"/><path fill="url(#u)" d="M437.269 178.161c14.506 1.856 26.75 6.058 34.032 4.497 12.497-2.675 23.062-.759 39.686 1.46 10.666 1.173 29.087 1.131 33.871-1.316 3.494-1.789 9.308-5.688 11.586-7.249.76-.523.869-1.325.456-2.962-1.063-4.202-2.279-9.754-.802-10.607 2.397-1.384 9.249 2.388 15.62 8.202.481.439 1.299 1.064 3.316 1.528 4.16.953 7.696 2.32 9.94 4.303 3.46 3.072 5.055 5.198 8.666 6.987 1.756.869 4.49 1.637 5.274 2.236.785.6.599 1.367.389 2.085-.431 1.434-3.562 4.54-10.253 5.122-6.86.599-15.721 2.287-24.573 8.185-3.307 2.211-3.434 2.135-2.759 2.852 1.899 1.992 8.869 6.042 19.054 7.974 13.94 2.642 16.986-1.054 18.767 1.283 1.628 2.219-1.561 4.506-4.127 5.181-2.59.684-8.075.642-14.505.312-8.405-.43-12.396.988-22.522-1.848-4.194-.995-17.813-1.139-20.092-1.021-9.003.473-25.129-2.059-36.175-4.396-14.033-2.979-24.767-1.873-29.906-.515-15.653 4.135-22.513-.506-33.719 2.591-5.384 1.485-6.101 1.569-12.219 2.05-8.042.633-7.915-4.295-2.827-4.607 3.941-.236 6.481-1.308 10.194-3.021 4.827-2.228 5.898-4.363 9.636-5.417 3.494-.988 7.688-.245 12.818-3.123.447-.253 4.776-2.497 6.532-3.932.396-.32.27-.869-.152-1.164-1.005-.692-13.502-2.464-40.977 4.995-15.037 4.084-25.906 9.468-43.727 19.493 34.074-34.834 42.672-42.546 59.515-40.184z" opacity=".8"/><path fill="url(#v)" d="M462.407 212.134c3.358-1.671 5.198-3.899 5.198-3.899s-3.899-.185-7.612-.185c-1.172 0-5.619-.178-5.619-.178s4.497-2.497 5.619-3.35c.903-.683 4.642-3.341 4.642-3.341s-6.16 1.257-7.426 1.485c-1.46.262-5.612 1.029-5.612 1.029s1.68-2.371 2.836-3.932c-4.38 1.907-8.042 1.418-11.147 2.295-3.739 1.055-4.81 3.19-9.637 5.418-3.713 1.713-6.261 2.784-10.194 3.021-5.088.312-5.214 5.24 2.827 4.607 6.118-.481 6.835-.565 12.219-2.05 8.548-2.363 14.573-.22 23.897-.912 0 0 .017 0 .017-.008z"/><path fill="url(#w)" d="M581.641 182.084c.211 1.975 1.257 1.806 2 1.823 1.367.034 1.924-.464 1.764-1.747-.296-2.303-1.722-3.038-2.608-2.641-.633.287-1.333.819-1.156 2.565"/><path fill="#fff" d="M584.547 182.215c.272-.042.443-.4.381-.801-.061-.401-.331-.692-.603-.65s-.442.4-.381.801c.061.4.331.692.603.65"/><path fill="url(#x)" d="M580.78 211.467c-5.459-1.038-9.991-2.684-13.316-4.295-3.063-.473-5.704-.912-7.096-1.3.143.084 5.772 4.084 8.219 4.498-2.287.582-6.624-1.139-11.046-.405 5.443 2.337 6.843 2.691 12.05 3.881-5.122.76-8.388.059-11.696.27l8.498 3.882c5.046.54 8.742-.042 14.531.253 6.43.329 11.915.371 14.505-.312 2.565-.675 5.755-2.97 4.127-5.181-1.781-2.346-4.827 1.358-18.767-1.283z"/><path fill="url(#y)" d="M588.122 188.438c.067 0 .126-.008.194-.016-2.388-.034-5.595-.659-9.384-2.701-2.835-1.527-5.527-2.801-8.531-3.451-9.198-1.966-13.704-.548-13.054.987.422.996 2.869.861 2.312 1.536-.388.473-4.177-.118-3.603 1.477.582 1.595 3.57 1.266 3.409 1.89-.152.591-2.683-.118-2.312 1.24.321 1.182 3.806.743 6.489 2.009 6.633 3.147-2.692 7.063-3.021 9.653-.169 1.376.017 2.304.203 2.852.059-.725.962-1.493 3.662-3.291 8.843-5.898 17.712-7.586 24.572-8.185a22 22 0 0 0 2.321-.337c-2.177-1.874-3.536-3.646-3.249-3.671z" opacity=".6"/><path fill="#FFC635" d="m591.37 192.117.017.017c5.088-1.004 7.535-3.535 7.915-4.793.211-.709.388-1.493-.38-2.084-.531-.405-1.966-.895-3.383-1.443-.009.565-.127 1.122-.515 1.645-2.042 2.709-4.658 2.81-6.7 2.971q-.104.002-.194.017c-.287.025 1.08 1.805 3.248 3.67z"/><path fill="#00073A" d="M599.252 187.443s.034-.076.042-.11c.211-.709.388-1.493-.379-2.084-.22-.169-.616-.355-1.081-.557-.16.363-.227.835-.151 1.477.101.86.928 1.173 1.569 1.265z"/><path fill="url(#z)" d="M556.444 175.553c-.726.498-1.815 1.241-3.072 2.067 2.169-1.189 6.574-3.265 11.78-3.89 4.574-.548 9.24-1.13 11.906-1.493a33 33 0 0 0-2.025-.515c-2.016-.464-2.835-1.088-3.316-1.527-6.371-5.814-13.223-9.586-15.619-8.202-1.477.852-.27 6.404.801 10.607.414 1.637.312 2.438-.455 2.962z"/><path fill="url(#A)" d="M528.024 210.099c-4.464-1.375-15.122-3.257-23.754-3.257-5.257 0-11.215 1.207-15.105 2.38 3.89.219 8.227.759 12.953 1.755 11.046 2.337 27.171 4.869 36.175 4.396.245-.016 6.27 0 6.515.017-4.405-2.194-14.219-4.497-16.784-5.291" opacity=".6"/><defs><linearGradient id="a" x1="349.663" x2="216.422" y1="330.347" y2="208.742" gradientUnits="userSpaceOnUse"><stop offset=".1" stop-color="#FB2970"/><stop offset=".51" stop-color="#FB2970" stop-opacity=".8"/><stop offset=".99" stop-color="#FB296F" stop-opacity="0"/></linearGradient><linearGradient id="b" x1="237.441" x2="237.661" y1="23.596" y2="278.105" gradientUnits="userSpaceOnUse"><stop stop-color="#FFEB49"/><stop offset=".15" stop-color="#FFEA48" stop-opacity=".99"/><stop offset=".28" stop-color="#FFE947" stop-opacity=".95"/><stop offset=".4" stop-color="#FFE646" stop-opacity=".88"/><stop offset=".52" stop-color="#FFE244" stop-opacity=".78"/><stop offset=".63" stop-color="#FFDE42" stop-opacity=".66"/><stop offset=".74" stop-color="#FFD83F" stop-opacity=".51"/><stop offset=".84" stop-color="#FFD13B" stop-opacity=".32"/><stop offset=".95" stop-color="#FFCA37" stop-opacity=".12"/><stop offset="1" stop-color="#FFC635" stop-opacity="0"/></linearGradient><linearGradient id="c" x1="201.671" x2="190.372" y1="9.892" y2="220.749" gradientUnits="userSpaceOnUse"><stop stop-color="#FFEB49"/><stop offset=".09" stop-color="#FFEB49" stop-opacity=".99"/><stop offset=".16" stop-color="#FFEB49" stop-opacity=".95"/><stop offset=".23" stop-color="#FFEB49" stop-opacity=".88"/><stop offset=".3" stop-color="#FFEB49" stop-opacity=".78"/><stop offset=".36" stop-color="#FFEB49" stop-opacity=".66"/><stop offset=".43" stop-color="#FFEB49" stop-opacity=".51"/><stop offset=".49" stop-color="#FFEB49" stop-opacity=".32"/><stop offset=".55" stop-color="#FFEB49" stop-opacity=".1"/><stop offset=".86" stop-color="#FFEB49" stop-opacity="0"/></linearGradient><linearGradient id="d" x1="-.005" x2="599.987" y1="189.857" y2="189.857" gradientUnits="userSpaceOnUse"><stop offset=".37" stop-color="#FFEB49" stop-opacity="0"/><stop offset=".38" stop-color="#FEE14A" stop-opacity=".03"/><stop offset=".49" stop-color="#FC5D65" stop-opacity=".44"/><stop offset=".53" stop-color="#FB2970" stop-opacity=".6"/><stop offset=".58" stop-color="#FB2970" stop-opacity=".65"/><stop offset=".68" stop-color="#FB2970" stop-opacity=".77"/><stop offset=".7" stop-color="#FB2970" stop-opacity=".8"/><stop offset=".77" stop-color="#FB3559" stop-opacity=".84"/><stop offset=".92" stop-color="#FD541F" stop-opacity=".94"/><stop offset="1" stop-color="#F60"/></linearGradient><linearGradient id="e" x1="426.587" x2="178.136" y1="151.758" y2="151.319" gradientUnits="userSpaceOnUse"><stop stop-color="#FFEB49"/><stop offset=".55" stop-color="#FFEB49"/><stop offset=".87" stop-color="#FFD03A" stop-opacity=".29"/><stop offset="1" stop-color="#FFC635" stop-opacity="0"/></linearGradient><linearGradient id="g" x1="379.003" x2="117.203" y1="110.646" y2="152.112" gradientUnits="userSpaceOnUse"><stop stop-color="#FFEB49" stop-opacity=".8"/><stop offset=".7" stop-color="#FFEB49" stop-opacity="0"/></linearGradient><linearGradient id="h" x1="448.481" x2="266.101" y1="205.26" y2="283.601" gradientUnits="userSpaceOnUse"><stop stop-color="#FFEB49" stop-opacity=".8"/><stop offset=".7" stop-color="#FFEB49" stop-opacity="0"/></linearGradient><linearGradient id="i" x1="-1.314" x2="65.518" y1="257.996" y2="240.453" gradientUnits="userSpaceOnUse"><stop stop-color="orange"/><stop offset="1" stop-color="orange" stop-opacity="0"/></linearGradient><linearGradient id="l" x1="577.43" x2="561.372" y1="178.701" y2="162.322" gradientUnits="userSpaceOnUse"><stop offset=".43" stop-color="#F60"/><stop offset=".55" stop-color="#FE6403"/><stop offset=".65" stop-color="#FE5E0E"/><stop offset=".75" stop-color="#FD5420"/><stop offset=".85" stop-color="#FC463A"/><stop offset=".94" stop-color="#FB345B"/><stop offset="1" stop-color="#FB2872"/></linearGradient><linearGradient id="m" x1="483.537" x2="415.92" y1="200.919" y2="239.372" gradientUnits="userSpaceOnUse"><stop offset=".24" stop-color="#BE0449"/><stop offset=".45" stop-color="#D20F56"/><stop offset=".8" stop-color="#EF216A"/><stop offset="1" stop-color="#FB2872"/></linearGradient><linearGradient id="n" x1="559.6" x2="617.116" y1="215.323" y2="243.583" gradientUnits="userSpaceOnUse"><stop offset=".01" stop-color="#BE0449"/><stop offset=".28" stop-color="#D20F56"/><stop offset=".74" stop-color="#EF216A"/><stop offset="1" stop-color="#FB2872"/></linearGradient><linearGradient id="o" x1="377.762" x2="599.986" y1="190.092" y2="190.092" gradientUnits="userSpaceOnUse"><stop offset=".22" stop-color="#F60" stop-opacity="0"/><stop offset=".31" stop-color="#F60" stop-opacity=".49"/><stop offset=".38" stop-color="#F60" stop-opacity=".86"/><stop offset=".41" stop-color="#F60"/><stop offset=".45" stop-color="#F60"/><stop offset=".63" stop-color="#F60"/><stop offset="1" stop-color="#F60"/></linearGradient><linearGradient id="p" x1="377.762" x2="599.986" y1="190.092" y2="190.092" gradientUnits="userSpaceOnUse"><stop offset=".24" stop-color="#F60" stop-opacity="0"/><stop offset=".25" stop-color="#F60" stop-opacity=".07"/><stop offset=".28" stop-color="#F60" stop-opacity=".31"/><stop offset=".3" stop-color="#F60" stop-opacity=".52"/><stop offset=".33" stop-color="#F60" stop-opacity=".69"/><stop offset=".35" stop-color="#F60" stop-opacity=".83"/><stop offset=".38" stop-color="#F60" stop-opacity=".92"/><stop offset=".4" stop-color="#F60" stop-opacity=".98"/><stop offset=".41" stop-color="#F60"/><stop offset=".45" stop-color="#F60"/><stop offset=".63" stop-color="#F60"/><stop offset="1" stop-color="#F60" stop-opacity="0"/></linearGradient><linearGradient id="q" x1="457.952" x2="599.042" y1="190.092" y2="190.092" gradientUnits="userSpaceOnUse"><stop offset=".37" stop-color="#F60" stop-opacity="0"/><stop offset=".58" stop-color="#F60"/><stop offset=".72" stop-color="#F60" stop-opacity=".61"/><stop offset="1" stop-color="orange" stop-opacity="0"/></linearGradient><linearGradient id="s" x1="510.093" x2="509.907" y1="169.334" y2="221.028" gradientUnits="userSpaceOnUse"><stop offset=".43" stop-color="#FFC635" stop-opacity="0"/><stop offset=".53" stop-color="#FD9C44" stop-opacity=".26"/><stop offset=".66" stop-color="#FC6B56" stop-opacity=".57"/><stop offset=".77" stop-color="#FB4764" stop-opacity=".8"/><stop offset=".84" stop-color="#FB316C" stop-opacity=".95"/><stop offset=".89" stop-color="#FB2970"/></linearGradient><linearGradient id="u" x1="404.444" x2="626.668" y1="190.093" y2="190.093" gradientUnits="userSpaceOnUse"><stop offset=".28" stop-color="#F60" stop-opacity="0"/><stop offset=".45" stop-color="#F60" stop-opacity=".61"/><stop offset="1" stop-color="orange" stop-opacity="0"/></linearGradient><linearGradient id="v" x1="478.355" x2="409.743" y1="201.198" y2="217.036" gradientUnits="userSpaceOnUse"><stop stop-color="#FA2771" stop-opacity=".02"/><stop offset=".1" stop-color="#F2256D" stop-opacity=".25"/><stop offset=".19" stop-color="#EB2369" stop-opacity=".45"/><stop offset=".28" stop-color="#E52266" stop-opacity=".62"/><stop offset=".38" stop-color="#E02164" stop-opacity=".76"/><stop offset=".48" stop-color="#DC2062" stop-opacity=".87"/><stop offset=".6" stop-color="#DA1F61" stop-opacity=".94"/><stop offset=".72" stop-color="#D81F60" stop-opacity=".99"/><stop offset=".88" stop-color="#D81F60"/></linearGradient><linearGradient id="w" x1="585.555" x2="582.517" y1="178.987" y2="183.405" gradientUnits="userSpaceOnUse"><stop offset=".16" stop-color="#A030B9"/><stop offset=".88" stop-color="#00073A"/></linearGradient><linearGradient id="x" x1="549.997" x2="601.699" y1="201.898" y2="222.783" gradientUnits="userSpaceOnUse"><stop stop-color="#FB2872" stop-opacity="0"/><stop offset=".19" stop-color="#EF256C" stop-opacity=".32"/><stop offset=".41" stop-color="#E32165" stop-opacity=".68"/><stop offset=".57" stop-color="#DB1F61" stop-opacity=".91"/><stop offset=".65" stop-color="#D81F60"/></linearGradient><linearGradient id="y" x1="574.064" x2="566.899" y1="186.725" y2="229.499" gradientUnits="userSpaceOnUse"><stop stop-color="#FFEB49"/><stop offset=".06" stop-color="#FED84C" stop-opacity=".9"/><stop offset=".21" stop-color="#FDAA56" stop-opacity=".67"/><stop offset=".35" stop-color="#FC825E" stop-opacity=".46"/><stop offset=".5" stop-color="#FC6265" stop-opacity=".3"/><stop offset=".64" stop-color="#FB486B" stop-opacity=".17"/><stop offset=".77" stop-color="#FB366E" stop-opacity=".08"/><stop offset=".89" stop-color="#FB2B71" stop-opacity=".02"/><stop offset="1" stop-color="#FB2872" stop-opacity="0"/></linearGradient><linearGradient id="z" x1="564.865" x2="558.308" y1="174.06" y2="157.596" gradientUnits="userSpaceOnUse"><stop stop-color="#F60" stop-opacity="0"/><stop offset=".19" stop-color="#F60" stop-opacity=".31"/><stop offset=".58" stop-color="#F60"/><stop offset=".62" stop-color="#FE5B12"/><stop offset=".74" stop-color="#FC453B"/><stop offset=".85" stop-color="#FB3559"/><stop offset=".94" stop-color="#FB2B6B"/><stop offset="1" stop-color="#FB2872"/></linearGradient><linearGradient id="A" x1="517.763" x2="510.531" y1="206.387" y2="261.481" gradientUnits="userSpaceOnUse"><stop stop-color="#FFEB49"/><stop offset=".37" stop-color="#FFEB49" stop-opacity=".59"/><stop offset=".68" stop-color="#FFEB49" stop-opacity=".27"/><stop offset=".89" stop-color="#FFEB49" stop-opacity=".08"/><stop offset="1" stop-color="#FFEB49" stop-opacity="0"/></linearGradient><radialGradient id="f" cx="0" cy="0" r="1" gradientTransform="rotate(12.52 40.946 1270.222)scale(314.86)" gradientUnits="userSpaceOnUse"><stop offset=".08" stop-color="#FB2872" stop-opacity=".2"/><stop offset="1" stop-color="#FB2872" stop-opacity="0"/></radialGradient><radialGradient id="j" cx="0" cy="0" r="1" gradientTransform="translate(127.692 288.797)scale(137.376)" gradientUnits="userSpaceOnUse"><stop stop-color="#C70049"/><stop offset="1" stop-color="#FB2872" stop-opacity="0"/></radialGradient><radialGradient id="k" cx="0" cy="0" r="1" gradientTransform="matrix(212.40982 112.9403 -190.86883 358.97206 -82.97 159.777)" gradientUnits="userSpaceOnUse"><stop stop-color="#FB2872"/><stop offset="1" stop-color="#FB2872" stop-opacity=".07"/></radialGradient><radialGradient id="r" cx="0" cy="0" r="1" gradientTransform="matrix(75.2195 0 0 75.2194 511.84 165.63)" gradientUnits="userSpaceOnUse"><stop offset=".39" stop-color="#FFEBCE" stop-opacity=".3"/><stop offset="1" stop-color="#F60" stop-opacity="0"/></radialGradient><radialGradient id="t" cx="0" cy="0" r="1" gradientTransform="translate(534.159 143.538)scale(63.8699)" gradientUnits="userSpaceOnUse"><stop offset=".28" stop-color="#FFEB49" stop-opacity=".3"/><stop offset=".73" stop-color="#FFEB49" stop-opacity=".3"/><stop offset=".8" stop-color="#FFEB49" stop-opacity=".22"/><stop offset=".94" stop-color="#FFEB49" stop-opacity="0"/></radialGradient></defs></svg>