<!-- This Source Code Form is subject to the terms of the Mozilla Public
   - License, v. 2.0. If a copy of the MPL was not distributed with this
   - file, You can obtain one at http://mozilla.org/MPL/2.0/. -->
<svg xmlns="http://www.w3.org/2000/svg" width="16" height="16" fill="context-fill" fill-opacity="context-fill-opacity" viewBox="0 0 16 16">
    <path d="M8 5a3 3 0 1 1 0 6 3 3 0 0 1 0-6m0 1.5c-.827 0-1.5.673-1.5 1.5S7.173 9.5 8 9.5 9.5 8.827 9.5 8 8.827 6.5 8 6.5"/>
    <path d="M8.605 0c.775 0 1.458.51 1.679 1.253l.397 1.344q.34.176.64.383l1.382-.33a1.75 1.75 0 0 1 1.922.827l.603 1.042a1.75 1.75 0 0 1-.256 2.09l-.964.997c.014.124.027.26.027.394 0 .125-.013.253-.026.37l.976 1.026a1.75 1.75 0 0 1 .246 2.08l-.603 1.043a1.75 1.75 0 0 1-1.796.851l-.142-.03-1.35-.336a6 6 0 0 1-.659.396l-.398 1.346A1.75 1.75 0 0 1 8.603 16h-1.2a1.75 1.75 0 0 1-1.683-1.267l-.38-1.322a6 6 0 0 1-.68-.406l-1.349.337a1.75 1.75 0 0 1-1.94-.822L.77 11.477a1.75 1.75 0 0 1 .247-2.08l.974-1.029A3 3 0 0 1 1.966 8c0-.134.011-.27.026-.395L1.03 6.61a1.75 1.75 0 0 1-.257-2.091l.601-1.042a1.75 1.75 0 0 1 1.923-.827l1.383.331c.207-.14.427-.274.66-.392l.38-1.321A1.75 1.75 0 0 1 7.403 0zM7.403 1.5a.25.25 0 0 0-.24.18l-.475 1.651a.75.75 0 0 1-.432.485c-.335.14-.652.335-.967.573a.75.75 0 0 1-.626.13L2.95 4.11h-.002a.25.25 0 0 0-.273.117L2.071 5.27a.25.25 0 0 0 .037.298l1.214 1.257a.75.75 0 0 1 .204.617c-.035.267-.06.399-.06.559 0 .155.024.267.057.537a.75.75 0 0 1-.2.607L2.102 10.43a.25.25 0 0 0-.035.297l.601 1.042c.056.096.17.145.278.118l1.69-.422.082-.016a.75.75 0 0 1 .552.147c.242.183.483.343.732.47l.252.118.076.037a.75.75 0 0 1 .356.448l.475 1.65.034.074a.25.25 0 0 0 .206.107h1.202a.25.25 0 0 0 .24-.18l.494-1.666.029-.078a.75.75 0 0 1 .397-.398c.331-.14.646-.34.965-.582l.07-.048a.75.75 0 0 1 .565-.083l1.69.422a.25.25 0 0 0 .275-.118l.602-1.041a.25.25 0 0 0-.034-.297l-.001-.001-1.22-1.285a.75.75 0 0 1-.2-.61c.033-.265.059-.381.059-.534 0-.162-.027-.291-.061-.562a.75.75 0 0 1 .205-.614l1.214-1.257a.25.25 0 0 0 .036-.297l-.602-1.042a.25.25 0 0 0-.274-.119l-1.717.41a.75.75 0 0 1-.626-.13 4.5 4.5 0 0 0-.945-.566.75.75 0 0 1-.427-.478L8.844 1.68a.25.25 0 0 0-.24-.179z"/>
</svg>