<?xml version="1.0" ?><svg enable-background="new 0 0 64 64" height="64px" id="Layer_1" version="1.1" viewBox="0 0 64 64" width="64px" xml:space="preserve" xmlns="http://www.w3.org/2000/svg" xmlns:xlink="http://www.w3.org/1999/xlink"><circle cx="32" cy="32" fill="#C75C5C" r="32"/><g opacity="0.2"><path d="M20,34h24c1.103,0,2-0.897,2-2V20c0-1.103-0.897-2-2-2H20c-1.103,0-2,0.897-2,2v12   C18,33.103,18.897,34,20,34z" fill="#231F20"/><path d="M44,14H20c-3.309,0-6,2.691-6,6v12v12c0,3.309,2.691,6,6,6h24c3.309,0,6-2.691,6-6V32V20   C50,16.691,47.309,14,44,14z M18,20c0-1.103,0.897-2,2-2h24c1.103,0,2,0.897,2,2v12c0,1.103-0.897,2-2,2H20c-1.103,0-2-0.897-2-2   V20z" fill="#231F20"/><circle cx="44" cy="44" fill="#231F20" r="2"/><path d="M42,52H22c-1.105,0-2,0.895-2,2c0,1.105,0.895,2,2,2h20c1.105,0,2-0.895,2-2C44,52.895,43.105,52,42,52z" fill="#231F20"/></g><path d="M48,42c0,2.209-1.791,4-4,4H20  c-2.209,0-4-1.791-4-4V18c0-2.209,1.791-4,4-4h24c2.209,0,4,1.791,4,4V42z" fill="#FFFFFF" stroke="#FFFFFF" stroke-miterlimit="10" stroke-width="4"/><path d="M48,30c0,2.209-1.791,4-4,4H20  c-2.209,0-4-1.791-4-4V18c0-2.209,1.791-4,4-4h24c2.209,0,4,1.791,4,4V30z" fill="#4F5D73" stroke="#FFFFFF" stroke-miterlimit="10" stroke-width="4"/><g><path d="M20,46h24c2.209,0,4-1.791,4-4v-4H16v4   C16,44.209,17.791,46,20,46z" fill="#E0E0D1" stroke="#E0E0D1" stroke-miterlimit="10" stroke-width="4"/></g><path d="M24,42c0,2.209-1.791,4-4,4l0,0  c-2.209,0-4-1.791-4-4l0,0c0-2.209,1.791-4,4-4l0,0C22.209,38,24,39.791,24,42L24,42z" fill="#E0995E" stroke="#E0E0D1" stroke-miterlimit="10" stroke-width="4"/><path d="M48,42c0,2.209-1.791,4-4,4l0,0  c-2.209,0-4-1.791-4-4l0,0c0-2.209,1.791-4,4-4l0,0C46.209,38,48,39.791,48,42L48,42z" fill="#E0995E" stroke="#E0E0D1" stroke-miterlimit="10" stroke-width="4"/><path d="M44,52c0,1.105-0.895,2-2,2H22c-1.105,0-2-0.895-2-2l0,0c0-1.105,0.895-2,2-2h20C43.105,50,44,50.895,44,52  L44,52z" fill="#F5CF87"/></svg>